<svg xmlns="http://www.w3.org/2000/svg" width="297" height="77" viewBox="0 0 297 77"><g><g><g><path fill="#a90020" d="M15.444 7.413l4.633 21.003L0 38.61l20.386 9.575-5.869 21.312 19.768-9.884L48.802 76.6l4.942-21.312h22.239L62.393 38.3 76.6 21.003h-6.178L42.316 55.288h-4.633l27.49-34.285h-6.178L31.196 55.288h-4.942l27.799-34.285L49.42 0 35.211 16.679 15.444 7.413z"/></g><g><path fill="#1a1818" d="M168.953 71.968H167.1l1.236-4.016h.308v1.544l.31 2.472zm-4.015 4.942l.618-1.855h3.707v1.855h5.25l-2.78-13.283h-5.25l-6.488 13.283z"/></g><g><path fill="#1a1818" d="M180.072 67.335l-.617 4.94c-.308.62-.308 1.236.31 1.236.926 0 .926-.617.926-1.236l.926-4.94h4.324l-.618 5.25c-.617 3.089-3.396 4.325-5.868 4.325-2.78 0-5.25-1.236-4.633-4.325l.927-5.25z"/></g><g><path fill="#1a1818" d="M186.56 73.203h.309c.617.618 1.234.927 2.16.927.31 0 .62 0 .62-.619.307-.308-.31-.308-.62-.308-1.543-.309-2.779-.928-2.47-2.78.31-2.162 2.78-3.088 4.633-3.088 1.236 0 2.47 0 3.397.617l-1.234 2.78c-.617-.618-1.236-.927-2.163-.927-.31 0-.617 0-.617.31 0 .617.308.617.927.617 1.543.309 2.78.926 2.47 2.78-.31 2.471-2.78 3.398-4.942 3.398-1.544 0-2.78-.31-4.016-.927l1.545-2.78z"/></g><g><path fill="#1a1818" d="M201.076 67.643h1.545l-.618 3.398h-1.545l-.926 5.868h-4.324l.926-5.868H194.9l.618-3.398h.926l.618-3.089h4.324z"/></g><g><path fill="#1a1818" d="M210.342 71.968c-.617-.31-.617-.62-1.236-.62-1.234 0-1.853.62-2.16 1.855l-.62 3.707h-4.323l1.235-9.575h4.634l-.31 1.234c1.236-1.234 1.854-1.234 3.399-1.234l-.619 4.633z"/></g><g><path fill="#1a1818" d="M215.284 71.968c.31-.62.618-1.236 1.544-1.236.619 0 .927.617.927 1.236 0 .926-.618 1.543-1.544 1.543-.617 0-.927-.617-.927-1.543zm1.853 3.706l-.309 1.236h4.325l1.544-9.575h-4.324v1.234h-.309c-.31-.926-1.236-1.234-2.47-1.234-2.472 0-4.325 2.47-4.633 4.94-.31 2.163.617 4.635 3.087 4.635 1.236 0 2.163-.619 3.09-1.236z"/></g><g><path fill="#1a1818" d="M224.55 62.701h4.325l-2.162 14.208h-4.634z"/></g><g><path fill="#1a1818" d="M232.272 62.393c-1.235 0-2.47.926-2.78 2.162-.31 1.544.927 2.161 2.163 2.161 1.236 0 2.47-.617 2.78-2.16.309-1.237-.618-2.163-2.163-2.163zm-4.324 14.517h4.324l1.545-9.575h-4.634z"/></g><g><path fill="#1a1818" d="M238.45 71.968c.308-.62.617-1.236 1.544-1.236.618 0 .926.617.926 1.236-.308.926-.617 1.543-1.544 1.543-.618 0-.926-.617-.926-1.543zm1.853 3.706l-.31 1.236h4.326l1.543-9.575h-4.323v1.234h-.31c-.309-.926-1.235-1.234-2.471-1.234-2.47 0-4.324 2.47-4.633 4.94-.308 2.163.619 4.635 3.089 4.635 1.236 0 2.162-.619 3.089-1.236z"/></g><g><path fill="#1a1818" d="M255.438 63.627h4.942l-1.545 8.958h4.016l-.618 4.324h-8.958z"/></g><g><path fill="#1a1818" d="M267.792 62.393c-1.234 0-2.47.926-2.78 2.162 0 1.544.927 2.161 2.163 2.161 1.236 0 2.472-.617 2.78-2.16.309-1.237-.618-2.163-2.163-2.163zm-4.323 14.517h4.323l1.545-9.575h-4.325z"/></g><g><path fill="#1a1818" d="M271.808 66.716c.309-2.78 1.853-4.323 4.632-4.323.62 0 1.236 0 1.855.307l-.31 3.399h-.616c-.929 0-1.236.617-1.236 1.236v.308l1.543-.308-.617 3.706h-1.545l-.927 5.869h-4.323l.926-5.869h-1.236l.618-3.706 1.236.308z"/></g><g><path fill="#1a1818" d="M282.31 71.041c0-.619.618-1.236 1.235-1.236.617 0 .927.617.927 1.236zm6.177 1.853c.927-3.398-1.544-5.56-4.633-5.56s-5.868 1.854-6.178 4.941c-.617 3.09 1.853 4.635 4.942 4.635 1.854 0 4.633-.927 5.56-3.09h-4.324c-.309.31-.618.618-.926.618-.927 0-.927-.927-.927-1.544z"/></g><g><path fill="#1a1818" d="M84.94 21.004h11.737l8.031 19.15h.31c.617-3.09 2.78-19.15 2.78-19.15h11.118l-5.25 34.284h-12.047l-8.03-17.914h-.309c-.31 3.397-2.472 17.914-2.472 17.914H79.38l5.56-34.284z"/></g><g><path fill="#1a1818" d="M130.653 43.243c.31-1.854 1.854-3.399 3.707-3.399 1.853 0 2.78 1.236 2.471 3.399-.309 1.853-1.545 3.396-3.707 3.396-2.161 0-2.78-1.543-2.47-3.396zm4.016 12.045h10.81l4.015-24.092h-11.119l-.31 2.78h-.307c-1.236-2.161-3.706-3.397-6.487-3.397-6.796 0-11.429 6.795-12.355 12.971-.927 5.561 1.544 12.357 8.031 12.357 3.397 0 5.56-1.546 8.03-3.708h.31z"/></g><g><path fill="#1a1818" d="M167.1 31.196h4.016l-1.545 9.266h-3.706l-2.471 14.826h-11.738l2.472-14.826h-3.089l1.544-9.266h3.089l.927-7.721h11.737l-1.236 7.721z"/></g><g><path fill="#1a1818" d="M187.486 23.783c.617-3.397-1.853-5.559-5.56-5.559-3.706 0-6.795 2.162-7.104 5.56-.617 4.015 2.162 5.559 5.25 5.559 3.398 0 6.797-1.544 7.414-5.56zm-13.281 7.413l-3.708 24.092h11.43l3.706-24.092z"/></g><g><path fill="#1a1818" d="M202.003 39.844c2.163 0 3.09 1.545 2.78 3.706-.31 1.854-1.853 3.09-3.706 3.09-1.854 0-3.09-1.236-2.78-3.09.308-2.16 1.853-3.706 3.706-3.706zm1.234-9.265c-8.03 0-15.134 4.632-16.678 12.971-1.236 8.032 5.25 12.357 12.664 12.357 7.413 0 15.135-4.325 16.37-12.357 1.544-8.339-4.632-12.971-12.356-12.971z"/></g><g><path fill="#1a1818" d="M230.728 35.211h.31c2.47-2.78 4.632-4.632 8.338-4.632 5.87 0 7.413 4.632 6.796 9.884L243.7 55.288h-11.428l1.853-11.738c0-1.236.31-3.396-1.544-3.396-1.853 0-2.162 2.16-2.47 3.396l-1.853 11.738H216.52l4.014-24.092h10.811l-.617 4.015z"/></g><g><path fill="#1a1818" d="M260.689 43.243c.31-1.854 1.853-3.399 3.706-3.399s2.78 1.236 2.47 3.399c-.307 1.853-1.543 3.396-3.706 3.396-1.853 0-2.78-1.543-2.47-3.396zm4.633 8.956l-.617 3.089h11.118l3.706-24.092h-11.118l-.31 2.78h-.309c-1.234-2.161-3.706-3.397-6.486-3.397-6.795 0-11.428 6.795-12.355 12.971-.926 5.561 1.544 12.357 8.032 12.357 3.396 0 5.559-1.546 8.03-3.708z"/></g><g><path fill="#1a1818" d="M285.398 18.532h11.429l-5.869 36.756H279.53l5.868-36.756z"/></g></g></g></svg>