<svg xmlns="http://www.w3.org/2000/svg" width="102" height="110" viewBox="0 0 102 110"><g><g><path fill="#b29369" d="M88.902 18.46h.001zm.001 0zM9.771 22.235c5.623-2.655 16.014-6.675 34.606-11.598v38.325H12.744C11.106 38.767 10.12 28.588 9.77 22.235zM47.59 10.637C66.18 15.56 76.572 19.58 82.195 22.235c-.072 1.283-.17 2.717-.29 4.239h-5.189a4.824 4.824 0 0 0-4.818 4.819v16.062a4.8 4.8 0 0 0 .275 1.607H47.589zm33.767 44.75c.197-1.048.39-2.121.578-3.213h3.263a223.176 223.176 0 0 1-.57 3.213zm-2.683-3.213a207.535 207.535 0 0 1-.587 3.213h-1.37a4.824 4.824 0 0 0-4.82 4.819v16.062c0 .123.005.246.014.367-.247.494-.497.96-.747 1.388-3.181 5.459-14.856 13.133-23.576 16.735V52.174zM92.78 110a4.824 4.824 0 0 0 4.82-4.818V90.496l3.453-3.454a1.606 1.606 0 0 0-2.272-2.271L85.29 98.26l-4.225-4.226a1.607 1.607 0 0 0-2.272 2.272l5.361 5.361a1.607 1.607 0 0 0 2.272 0l7.96-7.96v11.473c0 .886-.72 1.607-1.607 1.607H76.717c-.886 0-1.607-.72-1.607-1.607V89.12c0-.886.72-1.607 1.607-1.607H91.28a1.606 1.606 0 1 0 0-3.212H78.578c.329-.47.634-.945.913-1.423a32.71 32.71 0 0 0 .967-1.79h12.321a4.824 4.824 0 0 0 4.82-4.818V61.583l3.453-3.454a1.606 1.606 0 0 0-2.272-2.271l-13.49 13.49-4.225-4.226a1.607 1.607 0 0 0-2.272 2.272l5.361 5.36a1.607 1.607 0 0 0 2.272 0l7.96-7.959v11.473c0 .886-.72 1.607-1.607 1.607H76.717a1.609 1.609 0 0 1-1.582-1.328c-.016-.09-.025-16.341-.025-16.341 0-.886.72-1.607 1.607-1.607H91.28a1.606 1.606 0 1 0 0-3.212h-3.385c.191-1.05.378-2.124.56-3.213h4.324a4.824 4.824 0 0 0 4.82-4.819V32.67l3.453-3.454a1.606 1.606 0 0 0-2.272-2.271l-13.49 13.49-4.225-4.226a1.607 1.607 0 0 0-2.272 2.272l5.361 5.36a1.607 1.607 0 0 0 2.272 0l7.96-7.959v11.473c0 .886-.72 1.607-1.607 1.607H76.717c-.886 0-1.607-.72-1.607-1.607V31.293c0-.886.72-1.607 1.607-1.607H91.28a1.606 1.606 0 0 0 .268-3.19c.306-4.01.418-6.771.418-8.09 0-1.176-.569-2.228-1.485-2.745a1.606 1.606 0 0 0-1.73 2.702.377.377 0 0 1 .003.043c0 1.285-.115 4.03-.426 8.068h-3.2c.147-1.893.26-3.648.33-5.148a1.607 1.607 0 0 0-.896-1.517c-8.26-4.06-21.092-8.365-38.14-12.8a1.611 1.611 0 0 0-.4-.06h-.079a1.61 1.61 0 0 0-.399.06c-17.047 4.434-29.88 8.74-38.14 12.8a1.606 1.606 0 0 0-.896 1.517c.416 8.858 3.59 44.713 11.518 58.315a1.606 1.606 0 1 0 2.776-1.618c-3.204-5.496-5.703-15.47-7.518-25.849h31.092v42.578c-6.072-2.534-14.473-7.44-19.803-12.348a1.606 1.606 0 1 0-2.176 2.363c6.515 6 16.699 11.593 23.003 13.826.178.07.372.107.574.108h.003c.05 0 .099-.001.148-.006h.003c.14-.013.275-.043.403-.09 8.251-2.913 22.715-11.505 27.174-18.577a4.797 4.797 0 0 0 3.011 1.06h.098l-.099.171c-2.272 3.899-7.31 8.454-14.187 12.828-5.659 3.599-12.132 6.758-16.545 8.077-4.412-1.32-10.886-4.478-16.545-8.077-6.877-4.374-11.915-8.93-14.187-12.828C6.49 66.23 3.213 25.566 3.213 18.407v-.032c5.655-3.16 17.441-8.214 41.573-14.488.525-.136.93-.242 1.197-.313.267.071.672.177 1.198.313 15.998 4.16 28.412 8.243 36.897 12.137a1.607 1.607 0 0 0 1.34-2.92C76.762 9.132 64.169 4.985 47.989.778c-.59-.153-1.56-.433-2.006-.433-.445 0-1.416.28-2.006.433C24.161 5.93 9.864 10.938 1.485 15.662.57 16.178 0 17.23 0 18.406c0 7.603 3.25 48.643 12.475 64.47 3.237 5.554 10.074 10.636 15.239 13.921 5.947 3.782 12.813 7.113 17.492 8.486a2.75 2.75 0 0 0 1.554 0c4.68-1.372 11.545-4.704 17.492-8.486 2.367-1.505 5.084-3.387 7.646-5.52v13.904A4.824 4.824 0 0 0 76.716 110H92.78z"/></g></g></svg>