<svg xmlns="http://www.w3.org/2000/svg" width="29" height="29" viewBox="0 0 29 29"><g><g><g><g><path fill="#fff" d="M26.756 14.137c0 6.958-5.661 12.619-12.619 12.619S1.52 21.095 1.52 14.136c0-6.957 5.66-12.617 12.618-12.617s12.619 5.66 12.619 12.618zm1.519 0C28.275 6.342 21.933 0 14.137 0 6.342 0 0 6.342 0 14.137c0 7.795 6.342 14.137 14.137 14.137 7.795 0 14.138-6.342 14.138-14.137z"/></g></g><g><g><path fill="#fff" d="M11.92 14.204v8.193c0 .118.096.214.214.214h3.042a.213.213 0 0 0 .214-.214V14.07h2.206c.11 0 .203-.085.212-.195l.213-2.51a.213.213 0 0 0-.213-.23H15.39v-1.78c0-.418.338-.756.756-.756h1.7a.214.214 0 0 0 .213-.213v-2.51a.214.214 0 0 0-.213-.213h-2.873a3.052 3.052 0 0 0-3.053 3.053v2.419H10.4a.213.213 0 0 0-.214.213v2.509c0 .118.095.213.213.213h1.521z"/></g></g></g></g></svg>