<svg xmlns="http://www.w3.org/2000/svg" width="29" height="29" viewBox="0 0 29 29"><g><g><g><path fill="#fff" d="M21.734 17.538a3.657 3.657 0 0 1-3.657 3.656h-7.028a3.657 3.657 0 0 1-3.658-3.656v-7.029a3.657 3.657 0 0 1 3.658-3.657h7.028a3.657 3.657 0 0 1 3.657 3.657zm1.668-7.029a5.325 5.325 0 0 0-5.325-5.325h-7.028a5.325 5.325 0 0 0-5.325 5.325v7.029a5.324 5.324 0 0 0 5.325 5.324h7.028a5.325 5.325 0 0 0 5.325-5.324zm-8.81 6.425a2.8 2.8 0 0 1-2.796-2.797 2.8 2.8 0 0 1 2.797-2.796 2.8 2.8 0 0 1 2.796 2.796 2.8 2.8 0 0 1-2.796 2.797zm0-7.163a4.37 4.37 0 0 0-4.365 4.366 4.37 4.37 0 0 0 4.366 4.366 4.37 4.37 0 0 0 4.365-4.366 4.37 4.37 0 0 0-4.365-4.366zm4.621-1.332a1.04 1.04 0 1 0 0 2.08 1.04 1.04 0 0 0 0-2.08zm7.975 5.698c0 7.009-5.702 12.71-12.71 12.71-7.01 0-12.712-5.701-12.712-12.71 0-7.009 5.702-12.71 12.711-12.71s12.711 5.701 12.711 12.71zm1.334 0c0-7.744-6.3-14.045-14.045-14.045C6.733.092.433 6.393.433 14.137s6.3 14.045 14.044 14.045c7.745 0 14.045-6.3 14.045-14.045z"/></g></g></g></svg>