<svg xmlns="http://www.w3.org/2000/svg" width="49" height="60" viewBox="0 0 49 60"><g><g><path fill="#b29369" d="M19.482 7.229c.894-1.031 2.811-1.785 5.018-1.785 2.206 0 4.123.754 5.018 1.785l.814.938h5.057v2.722H13.61V8.167h5.057l.814-.938zm-3.946 23.513l-3.85 3.85 10.091 10.091 15.536-15.536-3.85-3.85-11.686 11.687zM13.61 16.333h21.778a5.442 5.442 0 0 0 4.716-2.722h3.45v40.833H5.445V13.611h3.45a5.442 5.442 0 0 0 4.716 2.722zm27.222-8.166a5.444 5.444 0 0 0-5.444-5.445h-2.711C30.63.988 27.66 0 24.5 0c-3.16 0-6.13.988-8.178 2.722H13.61a5.444 5.444 0 0 0-5.445 5.445H5.444A5.444 5.444 0 0 0 0 13.61v40.833a5.444 5.444 0 0 0 5.444 5.445h38.111A5.444 5.444 0 0 0 49 54.444V13.611a5.444 5.444 0 0 0-5.445-5.444z"/></g></g></svg>