<svg xmlns="http://www.w3.org/2000/svg" width="96" height="96" viewBox="0 0 96 96"><g><g><path fill="#b29369" d="M51.726 88.042c0-4.389-3.57-7.958-7.958-7.958h37.8c4.804 0 8.822 3.423 9.747 7.958zm-7.958 3.98a3.984 3.984 0 0 1-3.979-3.98 3.984 3.984 0 0 1 3.98-3.979 3.984 3.984 0 0 1 3.978 3.98 3.984 3.984 0 0 1-3.979 3.978zm3.35-15.917h-4.27l-2.502-6.434 3.696-1.479zM34.954 67.54L16.592 19.794l9.172-2.292a4.324 4.324 0 0 1 4.79 1.987L50.82 53.263c.593.987.906 2.116.906 3.268a6.322 6.322 0 0 1-3.993 5.899zM16.586 19.796l-.422-1.704.426 1.703-.004.001zM5.968 8.464a1.99 1.99 0 0 1-1.99-1.99 1.99 1.99 0 0 1 1.99-1.989h7.855a7.911 7.911 0 0 1 7.416 5.073l1.764 4.534-3.893.973L17.53 11a4.004 4.004 0 0 0-3.707-2.535zM73.61 72.127c2.59 0 4.778 1.668 5.602 3.978h-27.12c.824-2.31 3.012-3.978 5.602-3.978zm9.764 4.161c-.854-4.622-4.898-8.14-9.764-8.14H57.694c-3.216 0-6.052 1.56-7.871 3.935l-2.088-5.368 1.475-.59a10.283 10.283 0 0 0 6.495-9.593c0-1.873-.509-3.711-1.473-5.316L33.967 17.444a8.248 8.248 0 0 0-6.96-4.032l-2.061-5.296c-1.8-4.624-6.165-7.61-11.123-7.61H5.968A5.975 5.975 0 0 0 0 6.474a5.975 5.975 0 0 0 5.968 5.969h7.855l1.43 3.676c-.928.339-1.732.955-2.191 1.838a3.99 3.99 0 0 0-.187 3.268L31.24 68.97c.386 1 1.138 1.789 2.121 2.218a3.98 3.98 0 0 0 3.072.049l.221-.089 3.136 8.066v1.977c-2.367 1.38-3.979 3.918-3.979 6.851 0 4.39 3.57 7.958 7.958 7.958 2.933 0 5.471-1.612 6.851-3.979h29.326c.824 2.31 3.011 3.979 5.602 3.979 2.59 0 4.778-1.668 5.602-3.979h2.356c1.1 0 1.99-.89 1.99-1.99-.001-7.059-5.302-12.846-12.12-13.743z"/></g></g></svg>