<svg xmlns="http://www.w3.org/2000/svg" width="29" height="29" viewBox="0 0 29 29"><g><g><g><g><path fill="#fff" d="M27.116 14.137c0 6.958-5.66 12.619-12.618 12.619S1.879 21.095 1.879 14.136c0-6.957 5.66-12.617 12.619-12.617 6.957 0 12.618 5.66 12.618 12.618zm1.518 0C28.634 6.342 22.293 0 14.498 0 6.702 0 .36 6.342.36 14.137c0 7.796 6.342 14.137 14.138 14.137 7.795 0 14.136-6.341 14.136-14.137z"/></g></g><g><g><g><path fill="#fff" d="M17.021 14.422l-3.755 2.06c-.163.088-.31-.03-.31-.216V12.04c0-.188.151-.307.314-.213l3.782 2.167c.167.096.138.338-.03.43zm5.94-2.429a3.63 3.63 0 0 0-3.63-3.63H9.915a3.63 3.63 0 0 0-3.63 3.63v4.413a3.63 3.63 0 0 0 3.63 3.63h9.416a3.63 3.63 0 0 0 3.63-3.63z"/></g></g></g></g></g></svg>