<svg xmlns="http://www.w3.org/2000/svg" width="368" height="368" viewBox="0 0 368 368"><defs><clipPath id="14ota"><path d="M0 368V0h368v368z"/></clipPath></defs><g><g><g><path fill="#b29369" d="M0 368V0h368v368z"/></g><g clip-path="url(#14ota)"><path fill="#b99c73" d="M455.78 123.731c-2.69-20.7-7.507-40.841-14.702-60.417-3.641-9.896-7.703-19.616-12.857-28.843-.31-.835-.538-1.709-.937-2.495-4.139-8.142-9.24-15.705-14.086-23.42-.542-.982-1.017-2.01-1.636-2.942-7.033-10.606-14.736-20.687-23.595-29.851l-.003.003c-8.036-10-17.28-18.759-27.362-26.655-.176-.867-.911-1.271-1.512-1.767-10.076-8.315-20.505-16.106-32.506-21.51-10.204-5.712-20.964-10.107-32.11-13.585-6.872-2.68-13.91-4.78-21.155-6.185-5.347-1.698-10.802-2.868-16.388-3.415-7.153-1.82-14.454-2.45-21.801-2.747-.653-.586-1.473-.547-2.26-.564-9.072-.216-18.148-.452-27.221.02-1.604.055-3.27-.444-4.766.544v-.017c-9.982.385-19.756 2.029-29.336 4.837-8.828 1.815-17.18 4.98-25.256 8.917-7.817 3.207-14.953 7.609-21.858 12.42-4.865 3.174-9.517 6.62-13.69 10.677h-.004c-8.902 7.124-16.513 15.462-23.18 24.69-2.532 2.631-4.409 5.75-6.349 8.802C67.135-7.627 58.384 15.84 63.631 42.675c3.689 18.87 12.574 35.307 23.858 50.604v.003c6.754 10.158 14.701 19.325 23.245 28 4.737 5.292 9.8 10.263 14.998 15.098 6.868 7.25 14.289 13.907 21.88 20.379 8.436 7.677 16.868 15.354 25.303 23.034v-.002c5.181 4.922 10.423 9.782 15.528 14.784 4.689 4.598 9.227 9.35 13.833 14.033 2.723 3.182 5.458 6.352 8.167 9.549 8.016 9.46 14.702 19.81 20.513 30.742.368.943.696 1.906 1.103 2.83 7.144 16.151 9.697 32.856 6.5 50.38-1.555 8.53-4.589 16.54-7.637 24.576-7.119 14.252-15.813 27.476-25.914 39.785-1.513-2.063-.707-4.393-.519-6.526 1.268-14.443.596-28.75-2.64-42.898-4.401-19.238-14.124-35.646-26.952-50.388-.273-1.16-1.08-1.977-1.82-2.834-6.259-7.219-12.608-14.346-19.456-21.018-4.35-5.219-9.216-9.928-14.332-14.383h-.003c-.718-.849-1.353-1.786-2.162-2.538-7.92-7.341-15.423-15.13-23.73-22.049-.444-1.242-1.524-1.951-2.42-2.783-7.128-6.595-14.287-13.16-21.434-19.738-4.459-5.128-9.313-9.854-14.452-14.295v.003c-.316-1.18-1.316-1.838-2.108-2.604-7.66-7.412-14.477-15.605-21.738-23.385-.3-.47-.555-.974-.906-1.404-7.84-9.56-15.138-19.51-21.641-30.034-.422-.797-.824-1.603-1.262-2.39-5.458-9.742-10.808-19.527-13.794-30.39h-.002C4.43 47.969 5.233 19.286 15.058-9.25c.248-2.165 1.308-4.054 2.168-5.983 5.447-12.232 12.25-23.672 20.354-34.335.829-1.05 1.635-2.113 2.504-3.139 6.76-7.97 14.249-15.198 22.003-22.174 2.319-1.778 4.626-3.567 6.954-5.33 12.952-9.816 26.905-17.94 41.676-24.684 1.153-.558 2.6-.592 3.307-2.105l-3.99 1.399-.004.003c-8.164 1.908-16.052 4.703-23.838 7.74-8.623 3.36-17.26 6.737-25.287 11.434-8.7 3.718-16.625 8.805-24.579 13.842-8.115 5.107-16.012 10.517-23.242 16.85C7.025-51.163 1.114-46.426-4.019-40.8c-6.339 5.746-12.475 11.686-17.753 18.451-9.1 9.64-16.913 20.249-23.892 31.495-2.763 3.328-4.806 7.133-6.92 10.86-5.532 9.75-10.941 19.573-14.932 30.093-.436.78-.955 1.53-1.294 2.35a280.283 280.283 0 0 0-11.118 32.136c-5.017 17.938-8.17 36.227-9.295 54.794-.621 10.273-1.063 20.565-.336 30.917.635 9.044 1.162 18.106 2.447 27.057 2.74 19.109 7.412 37.785 14.192 55.888 1.623 4.33 3.025 8.776 5.404 12.796v.003c5.896 14.389 13.055 28.105 21.857 40.941v.003c.755 1.256 1.448 2.555 2.28 3.76 6.674 9.651 13.385 19.274 21.618 27.712 5.207 6.834 11.551 12.571 17.756 18.44 4.754 5.064 9.945 9.628 15.613 13.642h.003c4.64 4.378 9.751 8.141 15.141 11.537 7.335 4.863 15.104 8.91 23.202 12.346 8.108 4.168 16.568 7.455 25.28 10.107v.003c4.187 1.812 8.637 2.78 13.001 4.022 8.304 2.29 16.665 4.322 25.214 5.487v-.003c8.164 1.328 16.34 2.538 24.632 2.698 4.78.037 9.554.709 14.34.122 7.096.183 14.184.18 21.183-1.27 2.382.17 4.692-.336 7.01-.746 8.498-1.499 17.041-2.83 25.1-6.137 9.697-2.834 18.878-6.825 27.422-12.243h.003c4.874-2.385 9.457-5.213 13.576-8.766v.003c.522-.438 1-.937 1.567-1.302 9.085-5.81 16.525-13.437 23.661-21.405.356-.276.77-.5 1.057-.837 10.141-11.78 18.685-24.578 24.92-38.873 7.41-16.99 10.238-34.486 6.299-52.829-5.034-23.439-17.582-42.872-32.424-61.101-7.264-9.238-15.115-17.944-23.67-26.005-4.954-5.305-10.075-10.435-15.676-15.07-9.056-9.03-18.642-17.48-28.304-25.843-.203-.26-.373-.553-.613-.772-9.785-9.068-19.576-18.13-29.367-27.19-1.225-2.223-3.31-3.659-5.002-5.453-6.714-7.13-13.745-13.981-19.622-21.864-3.324-4.86-6.794-9.631-9.942-14.602-4.979-7.857-9.078-16.164-11.845-25.083-3.623-12.867-4.29-25.843-1.432-38.95v-.002.002c.424-4.455 2.216-8.503 3.82-12.596 4.427-11.287 10.876-21.411 18.026-31.125v-.003c3.911-6.181 9.233-11.084 14.637-16.824 0 1.105.02 1.416 0 1.72-1.117 15.722-1.784 31.436 1.239 47.038 1.572 8.104 3.51 16.115 7.492 23.459 6.706 15.636 17.015 28.766 28.566 41.026v.003c9.62 11.121 19.799 21.695 30.829 31.438 7.817 8.09 16.283 15.491 24.652 22.992 5.461 5.02 10.922 10.038 16.383 15.06v-.002.003l21.784 20.673h.003c3.43 3.609 6.842 7.235 10.295 10.824 7.383 7.67 14.169 15.862 21.057 23.966.638.932 1.24 1.892 1.92 2.792 9.745 12.879 18.132 26.533 24.237 41.55 3.159 7.778 5.173 15.874 7.398 23.918.085 1.017.09 2.049.27 3.048 1.906 10.689 2.17 21.405 1.296 32.239-.68 8.423-2.606 16.568-4.29 24.78v.003-.003.003a1.227 1.227 0 0 0-.25.718c-1.228 3.493-2.416 7-3.712 10.466-6.658 17.807-17.064 33.287-29.547 47.47-1.301 1.265-2.632 2.499-3.9 3.798-17.712 18.12-38.462 31.8-61.505 42.132-1.188.498-2.373.997-4.45 1.871 2.533.06 3.857-.367 5.074-1.168h.002c14.956-3.865 29.316-9.375 43.24-15.995 8.05-3.829 16.167-7.586 23.456-12.827 1.715-1.052 3.41-2.14 5.148-3.151 9.914-5.76 19.214-12.375 27.843-19.93 4.216-3.552 8.609-6.922 12.611-10.7 6.316-5.961 12.845-11.744 18.018-18.809 2.8-3.096 5.752-6.073 8.364-9.318 6.047-7.512 12.17-14.984 16.87-23.473 1.324-2.074 2.643-4.156 3.976-6.227 4.088-6.336 8.12-12.702 11.047-19.69.228-1.915 1.81-3.083 2.593-4.698 15.904-32.83 24.763-67.522 26.706-103.888.88-16.454.393-32.93-1.74-49.35z"/></g></g></g></svg>