<svg xmlns="http://www.w3.org/2000/svg" width="175" height="104" viewBox="0 0 175 104"><g><g><g><path fill="#0091d4" d="M119.236 49.64V38.944H54.182V49.64z"/></g><g><path fill="#0091d4" d="M53.826 36.456a9.452 9.452 0 1 0 0-18.905 9.452 9.452 0 0 0 0 18.905z"/></g><g><path fill="#0091d4" d="M75.748 36.456a9.452 9.452 0 1 0 0-18.905 9.452 9.452 0 0 0 0 18.905z"/></g><g><path fill="#0091d4" d="M97.67 36.456c5.22 0 9.453-4.232 9.453-9.452s-4.232-9.452-9.453-9.452a9.452 9.452 0 0 0 0 18.904z"/></g><g><path fill="#0091d4" d="M119.593 36.456a9.452 9.452 0 1 0 0-18.905 9.452 9.452 0 0 0 0 18.905z"/></g><g><path fill="#0091d4" d="M0 104V60.155H16.22v15.328l15.15-15.328h17.466l-20.14 19.961L53.113 104H31.547L16.219 89.206V104H0z"/></g><g><path fill="#0091d4" d="M54.004 104V60.155h16.219V92.77h27.09V104h-43.31z"/></g><g><path fill="#0091d4" d="M102.304 104V60.155h27.626l8.377 23.794 8.555-23.794h27.626V104h-16.22V71.65L146.685 104H129.93L118.345 71.56V104h-16.04z"/></g><g><path fill="#0091d4" d="M78.421 11.854V6.151h5.526V.626h5.703V6.15h5.525v5.703H89.65v5.525h-5.703v-5.525z"/></g></g></g></svg>