<svg xmlns="http://www.w3.org/2000/svg" width="55" height="60" viewBox="0 0 55 60"><g><g><path fill="#b29369" d="M36.363 45.453V50h9.09v-4.546zm-27.272 0V50h9.09v-4.546zm27.272-9.09v4.545h9.09v-4.545zm-13.636 0v4.545h9.09v-4.545zm-13.636 0v4.545h9.09v-4.545zm27.272-9.091v4.545h9.09v-4.545zm-13.636 0v4.545h9.09v-4.545zm-13.636 0v4.545h9.09v-4.545zm27.272-9.09v4.545h9.09V18.18zm-13.636 0v4.545h9.09V18.18zm-13.636 0v4.545h9.09V18.18zM36.363 9.09v4.545h9.09V9.091zm-13.636 0v4.545h9.09V9.091zm-13.636 0v4.545h9.09V9.091zM4.545 4.545H50v49.999H34.09v-9.09H20.454v9.09H4.545zM0 0v59.09h25v-9.091h4.545v9.09h24.999V0z"/></g></g></svg>