<svg xmlns="http://www.w3.org/2000/svg" width="69" height="69" viewBox="0 0 69 69"><g><g><path fill="none" stroke="#222221" stroke-miterlimit="20" stroke-width="1.5" d="M34.53 53.561v0c-10.51 0-19.03-8.52-19.03-19.03v0c0-10.51 8.52-19.03 19.03-19.03v0c10.511 0 19.031 8.52 19.031 19.03v0c0 10.51-8.52 19.03-19.03 19.03z"/></g><g><g><g><g><path fill="#222221" d="M27.472 29.768h14.715v8.83H27.472zm16.186 9.565v-10.3c0-.442-.294-.737-.735-.737H26.736c-.442 0-.736.295-.736.736v10.3c0 .442.294.737.736.737h16.187c.441 0 .735-.295.735-.736z"/></g></g></g><g><g><g><path fill="#222221" d="M34.83 34.918c-.222 0-.516-.147-.59-.368-.22-.368-.147-.809.221-1.03l8.094-5.15c.368-.22.81-.147 1.03.22.22.369.147.81-.22 1.03l-8.094 5.151c-.147.074-.295.147-.442.147z"/></g></g></g><g><g><g><path fill="#222221" d="M34.83 34.918a.562.562 0 0 1-.369-.147l-8.093-5.15c-.368-.221-.442-.662-.22-.957.22-.368.661-.441.956-.22l8.093 5.15c.368.22.442.662.22 1.03-.073.147-.367.294-.588.294z"/></g></g></g></g></g></svg>