<svg xmlns="http://www.w3.org/2000/svg" width="29" height="29" viewBox="0 0 29 29"><g><g><g><g><path fill="#fff" d="M26.752 14.137c0 6.945-5.65 12.595-12.594 12.595-6.945 0-12.595-5.65-12.595-12.595S7.213 1.543 14.158 1.543c6.944 0 12.594 5.65 12.594 12.594zm1.519 0C28.27 6.355 21.939.024 14.158.024 6.375.024.044 6.355.044 14.137c0 7.782 6.331 14.113 14.114 14.113 7.781 0 14.113-6.33 14.113-14.113z"/></g></g><g><g><g><path fill="#fff" d="M7.673 20.717h2.719c.13 0 .236-.105.236-.236v-9.128a.236.236 0 0 0-.236-.236h-2.72a.236.236 0 0 0-.235.236v9.128c0 .13.105.236.236.236zm14.463-5.505c0-2.949-1.575-4.32-3.674-4.32-1.696 0-2.453.933-2.877 1.585v.032h-.021c.006-.01.014-.02.02-.032v-1.124a.236.236 0 0 0-.235-.236h-2.714a.235.235 0 0 0-.236.238c.028 1.489 0 7.82-.006 9.126 0 .13.105.236.237.236h2.72c.13 0 .235-.106.235-.236v-5.126c0-.288.021-.573.105-.778.232-.574.755-1.167 1.638-1.167 1.155 0 1.616.88 1.616 2.17v4.901c0 .13.106.236.236.236h2.72c.13 0 .236-.105.236-.236v-5.27z"/></g></g></g></g></g></svg>