<svg xmlns="http://www.w3.org/2000/svg" width="71" height="95" viewBox="0 0 71 95"><g><g><path fill="#b29369" d="M23.665 12.167h23.667V6.251H23.665zM47.332.334c3.224 0 5.917 2.692 5.917 5.917v5.916H68.04c3.881 0 3.988 5.917 0 5.917H2.957c-3.881 0-3.988-5.917 0-5.917H17.75V6.251c0-3.225 2.692-5.917 5.916-5.917zM5.844 32.319l8.875 53.25c.22 1.36.947 3.514 3.136 3.514h35.453c1.171 0 2.562-1.171 2.946-3.514l8.875-53.25c.118-.775-1.03-2.402-2.958-2.402H8.992c-1.112 0-3.455.491-3.148 2.402zM62.171 24c5.053 0 9.733 2.923 8.68 9.242l-8.864 53.25C61.212 91.13 58.958 95 53.307 95H17.856c-4.615 0-7.928-2.876-8.863-8.508L.13 33.242C-.693 28.32 2.442 24 8.992 24zM23.665 38.26l5.881 41.475c.539 3.775-5.313 4.929-5.88.923l-5.882-41.475c-.556-3.917 5.36-4.621 5.881-.923zm29.548.922l-5.881 41.476c-.568 4.006-6.42 2.852-5.881-.923l5.88-41.475c.522-3.698 6.438-2.994 5.882.923z"/></g></g></svg>