<svg xmlns="http://www.w3.org/2000/svg" width="97" height="117" viewBox="0 0 97 117"><g><g><path fill="#fff" d="M44.742 103.88V86.198a2.306 2.306 0 0 1 2.303-2.303h15.74a4.983 4.983 0 0 1 4.978 4.977v15.01h-23.02zm35.86 5.204v4.35h-77.2v-4.35c0-.981.799-1.78 1.781-1.78h73.638c.982 0 1.781.799 1.781 1.78zM49.026 54.006c-5.703 0-10.344-4.64-10.344-10.344s4.64-10.344 10.344-10.344 10.345 4.64 10.345 10.344-4.64 10.344-10.345 10.344zM33.46 65.686a5.898 5.898 0 0 1-4.545-.004l-5.32-2.21a5.898 5.898 0 0 1-3.21-3.215 5.897 5.897 0 0 1 .003-4.544l.014-.034 16.287 6.762-.014.034a5.898 5.898 0 0 1-3.215 3.21zm-8.773 7.186l-3.2-1.329a.801.801 0 0 1-.466-.935l1.047-4.07c.072.032.142.066.214.096l5.321 2.209c.073.03.146.056.219.085l-2.143 3.614a.801.801 0 0 1-.992.33zm19.189-57.07l3.373 1.4 1.112.462L46.5 22.15l-4.486-1.862zm-8.097-7.327a.814.814 0 0 1 0-.625l1.596-3.844a.814.814 0 0 1 1.069-.442l22.42 9.308a.818.818 0 0 1 .441 1.069l-1.596 3.843a.819.819 0 0 1-1.068.442L36.22 8.918a.812.812 0 0 1-.442-.443zm29.337 28.54h-4.038a13.839 13.839 0 0 0-7.493-6.341l.092-.222a4.92 4.92 0 0 0-2.655-6.424l-1.361-.565 1.862-4.486 5.806 2.41a4.247 4.247 0 0 0 5.542-2.29l1.595-3.844a4.245 4.245 0 0 0-2.29-5.541L39.756.403a4.213 4.213 0 0 0-3.245-.002 4.213 4.213 0 0 0-2.297 2.292L32.62 6.537a4.213 4.213 0 0 0-.003 3.245 4.211 4.211 0 0 0 2.293 2.297l5.805 2.41-1.862 4.486-1.362-.565a4.88 4.88 0 0 0-3.761-.003 4.883 4.883 0 0 0-2.662 2.657l-2.617 6.303a1.712 1.712 0 0 0 3.162 1.312l2.616-6.302c.153-.368.44-.655.808-.807a1.48 1.48 0 0 1 1.142 0L49.71 27.19c.76.315 1.12 1.19.806 1.95l-.336.807c-.38-.032-.765-.052-1.153-.052-7.592 0-13.767 6.176-13.767 13.767 0 4.201 1.893 7.967 4.87 10.494l-2.128 5.124-16.287-6.762 7.084-17.064a1.712 1.712 0 0 0-3.16-1.313L17.226 54.4a9.3 9.3 0 0 0-.006 7.164 9.358 9.358 0 0 0 1.855 2.866l-1.37 5.325a4.24 4.24 0 0 0 2.468 4.95l3.2 1.328a4.243 4.243 0 0 0 5.249-1.746l2.804-4.73a9.353 9.353 0 0 0 3.34-.709 9.299 9.299 0 0 0 5.07-5.06l3.208-7.729c1.81.877 3.839 1.37 5.981 1.37 5.48 0 10.22-3.219 12.435-7.864h3.655c2.265 0 4.48.41 6.584 1.217a1.708 1.708 0 0 0 2.21-.984 1.711 1.711 0 0 0-.984-2.211 21.71 21.71 0 0 0-7.81-1.444h-2.55c.146-.806.227-1.634.227-2.481 0-1.11-.135-2.19-.385-3.224h2.708c15.196 0 27.56 12.364 27.56 27.56 0 6.632-2.4 13.044-6.757 18.056a27.618 27.618 0 0 1-14.734 8.828v-5.893a21.989 21.989 0 0 0 10.856-7.178 21.881 21.881 0 0 0 4.93-13.813c0-6.196-2.656-12.13-7.288-16.278a1.711 1.711 0 1 0-2.283 2.55 18.461 18.461 0 0 1 6.148 13.728c0 8.094-5.389 15.267-13.019 17.62-1.273-3.02-4.264-5.147-7.743-5.147h-15.74a5.732 5.732 0 0 0-5.727 5.726v.4h-5.746a1.711 1.711 0 0 0 0 3.422h5.746v5.703H14.534a1.73 1.73 0 0 1-1.728-1.728v-2.247a1.73 1.73 0 0 1 1.728-1.728h13.738a1.711 1.711 0 0 0 0-3.422H14.534c-2.84 0-5.15 2.31-5.15 5.15v2.247c0 2.84 2.31 5.151 5.15 5.151H41.32v4.736H5.183a5.21 5.21 0 0 0-5.204 5.203v6.062c0 .945.767 1.711 1.712 1.711h80.622c.945 0 1.711-.766 1.711-1.71v-6.063a5.21 5.21 0 0 0-5.203-5.203h-7.636v-5.5A31.03 31.03 0 0 0 88.502 88.3 30.949 30.949 0 0 0 96.1 67.998c0-17.084-13.9-30.982-30.983-30.982z"/></g></g></svg>