<svg xmlns="http://www.w3.org/2000/svg" width="40" height="40" viewBox="0 0 40 40"><g><g><path fill="none" stroke="#000" stroke-linecap="round" stroke-linejoin="round" stroke-miterlimit="20" stroke-width="1.5" d="M38.918 29.324v5.644a3.763 3.763 0 0 1-4.102 3.763 37.233 37.233 0 0 1-16.236-5.776A36.687 36.687 0 0 1 7.29 21.667 37.233 37.233 0 0 1 1.515 5.355 3.763 3.763 0 0 1 5.26 1.254h5.645a3.763 3.763 0 0 1 3.762 3.236c.239 1.806.68 3.58 1.317 5.286a3.763 3.763 0 0 1-.846 3.97l-2.39 2.39a30.103 30.103 0 0 0 11.289 11.288l2.39-2.39a3.763 3.763 0 0 1 3.969-.846 24.157 24.157 0 0 0 5.287 1.317 3.763 3.763 0 0 1 3.236 3.819z"/></g></g></svg>