<svg xmlns="http://www.w3.org/2000/svg" width="46" height="62" viewBox="0 0 46 62"><g><g><path fill="#b29369" d="M42.237 36.628c0 .51-.186.95-.559 1.323a1.808 1.808 0 0 1-1.323.558h-1.881V27.22h1.881c.51 0 .95.187 1.323.56.373.372.559.813.559 1.322zM8.368 27.22v11.29H6.487c-.51 0-.951-.187-1.323-.56a1.808 1.808 0 0 1-.559-1.322V29.1c0-.51.186-.95.559-1.323a1.808 1.808 0 0 1 1.323-.558zm11.29 26.342h7.526v3.763h-7.526zM23.42.878c-2.078 0-4.077.27-5.998.808a22.885 22.885 0 0 0-5.395 2.279c-1.675.98-3.2 2.156-4.571 3.528a22.507 22.507 0 0 0-3.528 4.571A22.885 22.885 0 0 0 1.65 17.46a22.094 22.094 0 0 0-.808 5.998v13.17c0 .589.093 1.162.28 1.72.185.56.44 1.069.763 1.53.324.46.716.867 1.176 1.22.461.352.976.627 1.544.823v4.116c0 1.568.294 3.033.882 4.395a11.425 11.425 0 0 0 6.012 6.012c1.362.588 2.828.882 4.396.882 0 .53.098 1.02.294 1.47a3.824 3.824 0 0 0 1.999 2c.45.196.94.294 1.47.294h7.526c.53 0 1.02-.098 1.47-.294a3.824 3.824 0 0 0 2-2c.195-.45.293-.94.293-1.47v-3.763c0-.529-.098-1.019-.294-1.47a3.824 3.824 0 0 0-1.999-1.999 3.647 3.647 0 0 0-1.47-.294h-7.526c-.53 0-1.02.098-1.47.294a3.825 3.825 0 0 0-2 2c-.195.45-.293.94-.293 1.47a7.324 7.324 0 0 1-2.926-.589 7.602 7.602 0 0 1-2.396-1.617 7.602 7.602 0 0 1-1.617-2.396 7.324 7.324 0 0 1-.588-2.925v-3.763h3.763V23.457H6.487c-.334 0-.657.034-.97.103a8.885 8.885 0 0 0-.912.25v-.353c0-1.725.225-3.391.676-4.998a19.086 19.086 0 0 1 1.896-4.498 18.732 18.732 0 0 1 2.94-3.808 18.732 18.732 0 0 1 3.808-2.94 19.086 19.086 0 0 1 4.498-1.896 18.419 18.419 0 0 1 4.998-.676c2.665 0 5.15.504 7.453 1.514s4.292 2.381 5.968 4.116c1.676 1.734 2.994 3.763 3.954 6.086.96 2.322 1.44 4.806 1.44 7.452a8.88 8.88 0 0 0-.91-.25 4.527 4.527 0 0 0-.97-.102H34.71v18.816h5.645c.784 0 1.52-.147 2.205-.441a5.663 5.663 0 0 0 1.794-1.206c.51-.51.911-1.107 1.205-1.793A5.537 5.537 0 0 0 46 36.628V23.457c0-2.078-.27-4.077-.809-5.998a22.885 22.885 0 0 0-2.278-5.395 22.506 22.506 0 0 0-3.528-4.571 22.506 22.506 0 0 0-4.572-3.528 22.885 22.885 0 0 0-5.395-2.279 22.094 22.094 0 0 0-5.997-.808z"/></g></g></svg>