<svg xmlns="http://www.w3.org/2000/svg" width="102" height="110" viewBox="0 0 102 110"><g><g><path fill="#b29369" d="M88.901 18.46h.002zm.002 0zM9.77 22.235c5.622-2.655 16.014-6.675 34.605-11.598v38.325H12.744c-1.638-10.195-2.623-20.374-2.973-26.727zm37.818-11.598c18.592 4.923 28.983 8.943 34.605 11.598-.071 1.283-.169 2.717-.29 4.239h-5.188a4.824 4.824 0 0 0-4.819 4.819v16.062a4.8 4.8 0 0 0 .275 1.607H47.59zm33.768 44.75c.196-1.048.39-2.121.577-3.213h3.263a223.176 223.176 0 0 1-.569 3.213zm-2.683-3.213a207.535 207.535 0 0 1-.587 3.213h-1.371a4.824 4.824 0 0 0-4.819 4.819v16.062c0 .123.005.246.014.367-.247.494-.498.96-.747 1.388-3.181 5.459-14.856 13.133-23.576 16.735V52.174zM92.779 110a4.824 4.824 0 0 0 4.819-4.818V90.496l3.453-3.454a1.606 1.606 0 0 0-2.271-2.271L85.29 98.26l-4.225-4.226a1.607 1.607 0 0 0-2.272 2.272l5.36 5.361a1.607 1.607 0 0 0 2.273 0l7.96-7.96v11.473c0 .886-.721 1.607-1.607 1.607H76.716c-.886 0-1.606-.72-1.606-1.607V89.12c0-.886.72-1.607 1.606-1.607H91.28a1.606 1.606 0 1 0 0-3.212H78.578c.328-.47.634-.945.913-1.423a32.71 32.71 0 0 0 .966-1.79H92.78a4.824 4.824 0 0 0 4.819-4.818V61.583l3.453-3.454a1.606 1.606 0 0 0-2.271-2.271l-13.49 13.49-4.225-4.226a1.607 1.607 0 0 0-2.272 2.272l5.36 5.36a1.607 1.607 0 0 0 2.273 0l7.96-7.959v11.473c0 .886-.721 1.607-1.607 1.607H76.716a1.609 1.609 0 0 1-1.582-1.328c-.016-.09-.024-16.341-.024-16.341 0-.886.72-1.607 1.606-1.607H91.28a1.606 1.606 0 1 0 0-3.212h-3.385c.19-1.05.378-2.124.56-3.213h4.324a4.824 4.824 0 0 0 4.819-4.819V32.67l3.453-3.454a1.606 1.606 0 0 0-2.271-2.271l-13.49 13.49-4.225-4.226a1.607 1.607 0 0 0-2.272 2.272l5.36 5.36a1.607 1.607 0 0 0 2.273 0l7.96-7.959v11.473c0 .886-.721 1.607-1.607 1.607H76.716c-.886 0-1.606-.72-1.606-1.607V31.293c0-.886.72-1.607 1.606-1.607H91.28a1.606 1.606 0 0 0 .268-3.19c.305-4.01.418-6.771.418-8.09 0-1.176-.57-2.228-1.485-2.745a1.606 1.606 0 0 0-1.73 2.702.377.377 0 0 1 .002.043c0 1.285-.114 4.03-.425 8.068h-3.2c.147-1.893.26-3.648.33-5.148a1.607 1.607 0 0 0-.896-1.517c-8.26-4.06-21.092-8.365-38.14-12.8a1.611 1.611 0 0 0-.4-.06h-.079a1.61 1.61 0 0 0-.399.06c-17.048 4.434-29.88 8.74-38.14 12.8a1.606 1.606 0 0 0-.897 1.517c.417 8.858 3.591 44.713 11.52 58.315a1.606 1.606 0 1 0 2.775-1.618c-3.204-5.496-5.703-15.47-7.519-25.849h31.093v42.578c-6.073-2.534-14.474-7.44-19.804-12.348a1.606 1.606 0 1 0-2.176 2.363c6.515 6 16.7 11.593 23.003 13.826.178.07.372.107.575.108h.003c.05 0 .099-.001.148-.006h.002c.14-.013.276-.043.404-.09 8.25-2.913 22.715-11.505 27.174-18.577a4.797 4.797 0 0 0 3.011 1.06h.098l-.1.171c-2.271 3.899-7.31 8.454-14.186 12.828-5.66 3.599-12.133 6.758-16.545 8.077-4.413-1.32-10.886-4.478-16.545-8.077-6.877-4.374-11.916-8.93-14.188-12.828C6.49 66.23 3.212 25.566 3.212 18.407l.001-.032c5.655-3.16 17.44-8.214 41.572-14.488.526-.136.93-.242 1.198-.313.267.071.671.177 1.197.313 15.999 4.16 28.413 8.243 36.898 12.137a1.607 1.607 0 0 0 1.34-2.92C76.761 9.132 64.168 4.985 47.987.778 47.4.625 46.429.345 45.984.345c-.445 0-1.416.28-2.006.433C24.16 5.93 9.864 10.938 1.485 15.662.569 16.178 0 17.23 0 18.406c0 7.603 3.25 48.643 12.475 64.47 3.237 5.554 10.073 10.636 15.239 13.921 5.946 3.782 12.813 7.113 17.492 8.486a2.75 2.75 0 0 0 1.553 0c4.68-1.372 11.546-4.704 17.493-8.486 2.367-1.505 5.084-3.387 7.645-5.52v13.904A4.824 4.824 0 0 0 76.716 110h16.063z"/></g></g></svg>