<svg xmlns="http://www.w3.org/2000/svg" width="29" height="29" viewBox="0 0 29 29"><g><g><g><g><path fill="#fff" d="M27.436 14.137c0 6.958-5.66 12.619-12.619 12.619-6.957 0-12.618-5.661-12.618-12.62 0-6.957 5.66-12.617 12.618-12.617s12.619 5.66 12.619 12.618zm1.518 0C28.954 6.342 22.612 0 14.817 0 7.022 0 .68 6.342.68 14.137c0 7.795 6.342 14.137 14.137 14.137 7.795 0 14.137-6.342 14.137-14.137z"/></g></g><g><g><g><path fill="#fff" d="M22.942 8.978c-.523.237-1.1.38-1.664.475.268-.045.663-.53.821-.727.241-.3.442-.64.555-1.009.014-.029.025-.065-.004-.087-.036-.014-.06-.007-.088.008a8.516 8.516 0 0 1-1.977.756c-.058.015-.1 0-.136-.036-.058-.065-.112-.126-.173-.177a3.5 3.5 0 0 0-.958-.587 3.336 3.336 0 0 0-1.469-.236 3.511 3.511 0 0 0-1.393.394c-.432.225-.818.539-1.125.918a3.458 3.458 0 0 0-.671 1.345c-.116.473-.106.941-.036 1.42.01.079.004.09-.068.079-2.716-.404-4.966-1.376-6.794-3.458-.079-.09-.122-.09-.187.007-.8 1.198-.412 3.123.587 4.07.133.126.27.252.418.368-.054.01-.719-.061-1.311-.368-.08-.05-.12-.021-.126.069-.008.13.003.248.02.389.154 1.215.996 2.338 2.148 2.777.137.058.288.108.436.133-.263.058-.533.099-1.286.04-.094-.018-.13.029-.094.119.566 1.542 1.787 2 2.702 2.262.122.022.245.022.367.05-.007.011-.014.011-.021.022-.303.462-1.355.807-1.845.978-.891.311-1.861.451-2.802.358-.151-.022-.183-.02-.223 0-.042.026-.006.062.042.101.192.126.386.238.584.346a9.288 9.288 0 0 0 1.873.75c3.367.929 7.158.246 9.685-2.265 1.985-1.972 2.681-4.692 2.681-7.415 0-.106.126-.166.2-.221.518-.388.928-.853 1.313-1.371.087-.117.081-.22.081-.263v-.014c0-.044.006-.03-.062 0z"/></g></g><g><g><path fill="#fff" d="M11.42 20.865c1.396 0 .067 0 0 0"/></g></g><g><g><path fill="#fff" d="M11.42 20.865c-.022.002-.272 0 0 0"/></g></g><g><g><path fill="#fff" d="M11.975 20.88c0-.028.292 0 0 0"/></g></g><g><g><path fill="#fff" d="M17.803 7.371c-.018.015-.043.015-.068 0"/></g></g></g></g></g></svg>