<svg xmlns="http://www.w3.org/2000/svg" width="248" height="77" viewBox="0 0 248 77"><g><g><g><path fill="#231f20" d="M77.593 56.562v-.247h167.503v.247z"/></g><g><path fill="#231f20" d="M77.593 75.883l1.195-.288 3.872-8.816h.577l3.666 8.816 1.113.288v.453H84.06v-.453l1.195-.288-1.113-2.801h-3.337l-1.153 2.8 1.195.29v.452h-3.296l.041-.453zm3.502-3.707h2.842l-1.4-3.502z"/></g><g><path fill="#231f20" d="M90.858 73.206v-5.603l-1.194-.288v-.454h3.83v.454l-1.03.288v5.438c0 2.06.66 2.554 2.514 2.554 1.813 0 2.472-.536 2.472-2.595v-5.397l-1.154-.288v-.454h3.213v.454l-1.07.288-.248 5.85c-.082 1.977-1.236 2.966-3.46 2.966-2.307 0-3.873-1.071-3.873-3.213"/></g><g><path fill="#231f20" d="M103.258 75.389l-.37.906h-.371l-.33-3.378.371-.123c1.236 2.224 1.813 2.883 3.254 2.883 1.072 0 1.813-.412 1.813-1.483 0-1.153-.535-1.524-2.266-2.1-1.565-.495-2.883-1.195-2.883-2.884 0-1.401 1.03-2.472 2.719-2.472.947 0 1.647.412 2.018.782l.33-.659h.33l.288 2.843-.33.082c-1.071-1.812-1.565-2.307-2.719-2.307-.947 0-1.565.412-1.565 1.319 0 .947.494 1.235 2.1 1.689 1.649.494 3.214 1.36 3.214 3.09 0 1.73-1.154 2.8-3.09 2.8-1.236.042-2.018-.453-2.513-.988"/></g><g><path fill="#231f20" d="M113.392 75.883l1.442-.288v-8.198l-1.73.206-1.318 2.595-.33-.082.206-3.213h7.951l.206 3.213-.33.082-1.318-2.595-1.73-.206v8.198l1.442.288v.412h-4.49z"/></g><g><path fill="#231f20" d="M128.965 75.966c-1.277-3.42-1.277-3.832-2.76-3.832h-.824v3.46l1.318.29v.452h-4.202v-.453l1.277-.288v-7.95l-1.277-.29v-.452h4.325c1.895 0 3.46.865 3.46 2.554 0 1.442-1.235 2.142-2.8 2.39v.04c.947.124 1.441.412 2.06 1.566l1.112 2.1.906.289v.453h-1.977c-.371 0-.536-.082-.618-.33zm-3.584-4.532h1.03c1.853 0 2.265-.33 2.265-1.977 0-1.648-.453-1.895-2.018-1.895h-1.277z"/></g><g><path fill="#231f20" d="M133.702 75.883l1.195-.288 3.872-8.816h.577l3.666 8.816 1.113.288v.453h-3.955v-.453l1.195-.288-1.113-2.801h-3.337l-1.153 2.8 1.195.29v.452h-3.296zm3.502-3.707h2.842l-1.4-3.502z"/></g><g><path fill="#231f20" d="M146.679 75.883l1.277-.288v-7.95l-1.277-.29v-.452h4.202v.453l-1.318.288v8.157l3.13-.247L154.219 73l.33.082-.454 3.213h-7.415z"/></g><g><path fill="#231f20" d="M157.102 75.883l1.318-.288v-7.95l-1.318-.29v-.452h4.243v.453l-1.36.288v7.95l1.36.29v.411h-4.243z"/></g><g><path fill="#231f20" d="M163.858 75.883l1.194-.288 3.873-8.816h.577l3.666 8.816 1.112.288v.453h-3.955v-.453l1.195-.288-1.112-2.801h-3.337l-1.154 2.8 1.195.29v.452h-3.296l.042-.453zm3.501-3.707h2.843l-1.4-3.502z"/></g><g><path fill="#231f20" d="M64.658 44.574c.412.248 1.771.206 1.606.412-.865 1.483-2.76.66-2.76.66s-.824.576-1.483.123c-.206 1.977-2.513 2.183-2.513 2.183 0 .454.536 2.555.536 2.555-1.895-1.154-1.854-2.431-1.978-2.637-.577-.37-.7-.906-.618-1.153-.453.494-.988.33-.988.33-.206.782.123 2.47.123 2.47-1.689-1.482-1.648-3.13-1.648-3.13-2.719-3.666 3.214-5.397 3.46-5.726 0 0 .042-.824-.288-2.266-.33-1.442-1.812-4.243-1.812-4.243-4.243 1.483-11.206-.536-11.206-.536-1.03 3.914 4.285 3.296 4.285 3.296s.412 1.524-.494 3.625c-.7 1.648-3.049 1.566-3.049 1.566 1.03 4.366-1.524 3.625-1.524 3.625-.247 3.13-1.854 2.595-1.854 2.595.124 3.46-1.277 3.42-1.277 3.42-1.195 2.677-2.101 2.06-2.101 2.06.453-.578.824-2.143.824-2.143-.371-.082-.577-.536-.742-.947L37.14 52.03c.164.659-.7 3.996-3.502 3.996-.247.494.041 2.595.041 2.595-1.4-.577-1.73-3.13-1.73-3.13-.865-.454-1.154-1.525-1.154-1.525-1.606.33-2.718-.206-2.718-.206-.536.494-.907 2.966-.907 2.966-1.236-1.977-.535-3.913-.535-3.913-.989-1.525.082-3.379.082-3.379-.453 0-.783-.453-.783-.453-.535.33-1.895 1.813-1.895 1.813.042-2.184 1.401-3.255 1.401-3.255 1.153-3.542 6.756-1.977 9.516.083.907-.577 4.861-3.625 3.42-7.869-.371-1.112-2.596-3.83-3.585-5.561-.988-1.772-.576-4.696-.247-5.356l-.741-.288c-3.296 5.438-7.91 5.397-7.91 5.397 1.36 1.936.66 3.749-.33 4.572-1.812 1.525-4.16.536-4.16.536-1.154 3.46-3.75 1.854-3.75 1.854-1.111 1.73-3.089 1.112-3.089 1.112-.247.742-1.194 1.36-1.194 1.36-1.278 2.883-1.69 2.265-1.69 2.265.083-.741.454-2.142.289-2.636l-.577-.33c-.659 1.36-1.689 2.513-2.472 3.008-.782.494-1.524.082-1.524.082-.33.33-.494 2.307-.494 2.307-1.36-1.236-.742-3.172-.742-3.172-.947-1.03-.37-2.142-.37-2.142-1.772-.206-2.184-1.978-2.184-1.978-.33.083-1.895 1.36-1.895 1.36-.33-2.596 2.019-3.378 2.019-3.378.288-1.277 1.153-1.772 1.153-1.772-.412-.288-.412-.988-.165-1.277-.33-.206-2.183-.618-2.183-.618 1.442-1.112 2.801-.7 2.801-.7 4.367-1.442 5.438 2.884 5.438 2.884 3.172-.948 5.891-2.925 7.127-4.285-1.607-.659-2.884-2.348-3.007-2.678-.165.33-3.172 2.596-4.079-1.277 0 0-1.647-.164-2.265-1.565-.454-1.03-.083-2.019-.083-2.019-2.06-.123-2.142-1.483-2.183-3.172 0 0-.206-.247-.495-.741-.782 4.16-1.483 7.95-1.771 9.351-.288 1.524-.865 2.06-1.648 1.978-.7-.083-1.07-.618-1.03-2.06.124-2.637.577-11.04.577-11.04s-.7-.413-1.153-.99C-.31 17.427.639 16.232.639 16.232c-1.648-2.389.412-3.13.412-3.13-.453-1.401.165-2.513 1.277-2.637l.124-3.914C.845 4.655 2.163 1.936 4.47 1.236c2.019-.618 3.502-.37 4.45 0 .988.37 2.718.124 3.83-.288 1.113-.412 1.896-.33 2.637-.041.7.288 1.112.123 1.978-.124.865-.247 2.348-.412 3.378-.206 1.03.206.741.783.164.783-2.018-.042-2.925 1.153-3.378 1.565-.453.412-.947.742-1.73.824-.783.082-1.236.989-1.936 1.648-.948.865-1.772.618-2.266.659-.659.041-.33 1.071-.947 2.183-.454.824-1.73.866-2.431.783 0 0-.66 3.131-.7 3.296.33.247 1.03.783 1.524 1.854.535 1.153.33 1.812.124 2.554-.248.824.123 1.895.535 2.307 1.73 1.648 4.902 2.719 4.902 2.719.783-1.401 4.038-5.232 4.038-5.232-.495-.453-1.69.453-2.143.7-1.689-1.565-.618-3.378-.618-3.378-2.966.165-3.172-2.678-3.172-2.678.7.453 2.637.289 2.637.289-1.607-.948-1.854-2.678-1.895-3.172-.124-.99.865-1.072 1.648-1.236.782-.165 1.194-.495 1.648-1.236.453-.742 1.4-1.4 2.183-1.813.783-.412 3.872-1.07 4.902-1.153.618-.041 1.319-1.978 1.319-1.978 3.048 1.566 3.13 3.008 3.172 4.532 0 .824-.453 1.483-.453 1.483.782 1.03.659 2.1.453 2.719 1.565.33 1.36 2.348 1.36 2.348.617.494.494 1.442.494 1.442 1.936 2.472.535 3.543.535 3.543.906 1.4-.412 2.801-.412 2.801s4.202-.082 6.138-.247c2.966-.247 5.15-1.236 8.899-.989 1.936.165 3.707 1.071 5.273 1.895 1.565.783 7.539.989 9.434.824 1.647-.123 2.265-1.07 2.307-1.648.04-.906-.289-2.513-4.285-3.09-2.678-.411-10.175.165-12.482.248-2.596.123-5.067.165-6.468-.041-2.636-.33-4.326-.7-6.18-2.925-1.853-2.184-1.4-5.562-.823-6.715.7-1.4 2.183-3.502 7.085-3.502C44.718 3.502 47.15 0 52.093 0c6.097 0 5.396 3.831 5.396 3.831 2.349-1.03 4.45-.453 4.985.66 3.502.782 3.46 4.12 3.46 4.12-1.359-.866-3.46-1.113-5.52-1.237-2.307-.123-4.078 1.03-5.479 1.854-1.977 1.112-4.078.906-5.52.494-1.813-.535-5.067-1.647-5.067-1.647-.247 2.265-1.318 3.09-2.843 3.172-1.03.082-2.265-.66-2.43-.865.165-.165 1.689-2.143-.618-2.143-2.719 0-3.296 2.967-.165 4.367 1.648.742 3.996.495 3.996.495 2.76-2.143 4.45-.824 4.45-.824 3.089-1.772 4.449-.33 4.449-.33 3.378-1.36 4.243-.783 4.984-.288 2.596-1.36 4.408-.577 5.19-.33l-.493.989c2.883-.453 4.284 0 5.85 1.442l-1.36 1.03c3.13 3.913 1.771 7.62-1.648 8.98-3.42 1.319-8.486 1.113-10.546.371 1.071 4.738 9.022 1.4 9.022 1.4s.412.701.535 1.896c.165 1.524-1.03 2.43-1.03 2.43 2.637 1.566.7 3.049.7 3.049 1.443.577.66 2.018.454 2.06 0 0 .494.164 1.689 1.194 1.03.907.906 2.43.906 2.43.948 1.443.083 2.637.083 2.637-.206-.824-.536-1.4-.824-1.771-.33.577-.865.741-.865.741 2.06 3.008.824 4.367.824 4.367zM56.913 4.08s-.371-.824-2.596-1.03c-2.636-.206-5.643 1.4-5.643 1.4 5.396 1.36 8.239-.37 8.239-.37zm5.685 17.384c-1.648.989-4.49 1.277-10.588.289 0 0 .577.7.824 1.194 3.42.742 7.786.618 9.64.083 6.427-1.854 2.39-7.91 1.113-8.404.37-.33 1.153-.783 1.318-.948-.495-.535-2.307-.824-5.438-.412l.66-1.194c-1.937-.577-3.585.659-5.233 1.4l.577-1.112c-1.154-.577-3.213.082-5.603 1.195.289-.577.495-.948.495-.948-.824-.494-3.543.577-4.82 1.195 0 0 .33-.7.453-.906-.907-.536-3.42 1.112-3.42 1.112-3.913.041-5.479-.289-6.962-2.43-.988-1.443-.535-4.656 2.843-4.656s3.13 2.142 2.266 3.131c2.471.906 3.172-1.936 2.76-3.543.494 0 6.097 2.595 8.61 2.472 4.696-.165 3.625-4.12 12.606-2.019 0 0-.989-2.513-5.19-1.73.658-.783 1.853-.783 1.853-.783-3.007-1.112-4.532 2.019-10.175 1.566-2.39-.206-3.955-.907-4.78-1.277C52.588.742 56.46 2.472 56.46 2.472s-1.607-2.678-6.88-1.03c-2.884.906-5.644 3.13-10.67 3.213-1.895.042-3.996.536-5.15 2.225-1.153 1.977-1.03 4.614.66 6.426 1.648 1.772 4.037 2.184 7.291 2.349 3.131.164 14.666-1.277 18.703-.083 3.008.907 4.903 4.243 2.184 5.891zm-43.833-8.61c-.082-.288-.494-.659-1.194-.659-.742 0-2.225.041-2.555.041a9.86 9.86 0 0 1-.947-.082c.247.412.577.824 1.771.783zM3.481 4.326c-.082.782 0 1.442.742 1.977.7.577 1.607.989 3.46 1.236 1.03.124 1.978.124 2.184-.7.165-.536.247-1.772 2.018-1.854 1.319-.041 1.69-.33 1.978-.906.33-.577 1.03-1.566 1.977-1.525.7.042 1.73-.824 1.73-.824-.617.165-1.894.454-2.8.124-.578-.206-1.113-.165-1.978.165s-2.513.741-3.749.288c-2.225-.824-5.19-.165-5.562 2.019zm-1.112 8.65c.865.907 1.4.578 1.648.33.288-.288.288-.741-.041-1.194-.577-.824-1.318-.865-1.607-.7zM1.092 14.46c-.206.453.289 1.153.618 1.4.33.248.742.577 1.112.701.371.124 1.03.288 1.319-.288.247-.536-.124-.99-.495-1.154-.37-.165-1.483-.906-1.689-1.03-.123-.041-.618-.165-.865.371zm.453 3.872c.412.495 1.071.866 1.483.783.618-.123.618-.947.206-1.236-1.277-.412-1.442-.741-1.853-.988-.289.123-.206.947.164 1.441zm3.42 1.36c-.412.165-.824 0-.824 0-.206.288-.412.33-.783.37-.33 4.862-.7 9.517-.742 10.052-.04.412-.082.907-.04 1.195.04.165.04.289.164.289.082 0 .124-.083.165-.248zm.37-2.637c-.206 0-.576-.082-.7-.164-.124.37-.37.617-.824.659.494.33.66.865.536 1.4l.618.453zm.371-1.895c-.041-.206-.124-.412-.165-.659a1.773 1.773 0 0 1 0-.659c-.33.041-.782-.041-.782-.041s-.33.412-.99.33c.784.411 1.36 1.153 1.196 2.1l.453.454zm1.195-6.509c-.742-.123-2.019-.412-2.76-.906l-.206 2.884c.618.412 1.36 1.524 1.112 2.43.206.247.37.289.535.536.083-.453.412-1.195.412-1.195-.164-.494-.7-1.236-.7-1.236.453-.04.742.041 1.071.206zm7.868 18.127c.453 2.636 2.843 4.984 4.45 5.149.164 0 .288-.165.205-.288-1.07-2.101-1.853-2.966-1.895-5.603 0-.124.165-.165.206-.041.371.947.948 2.39 1.648 3.378.495.7 2.06 2.266 1.195-.124-.7-1.977-.33-4.12.041-4.82.206-.412.453-.37.288.865-.164 1.278.289 3.255.783 4.202.494.948 2.225 1.154 2.472-1.977.247-3.13-.66-5.561-1.112-6.468-.289-.576-.165-1.153.247-.659.37.494 2.472 2.637 2.142 6.18 0 0 1.607-.042 1.236-3.255-.37-3.213-1.607-4.779-1.854-5.19-.247-.413-.206-1.03.37-.495.578.577 2.514 2.307 2.802 4.944 0 0 1.483-.742.865-2.39a16.48 16.48 0 0 0-2.183-4.078c-.247-.289.247-.495.659-.165.536.412 1.524 1.318 2.266 3.048 0 0 1.03-1.235.453-1.895-.536-.576-.824-1.4-2.678-2.595-.247-.165-.206-.577.371-.33.536.248 1.936 1.072 2.637 1.73.535-.823-.412-2.677-2.72-2.636-.494 0-.411-.412.042-.494.288-.082 1.236-.041 1.73.123 0 0 .041-.659-.618-.906 0 0 .536-1.03-.618-1.565 0 0-1.03 2.43-4.284 1.771-.536-.082-.948-.741-.124-.659 1.854.206 4.779-1.771 3.213-4.078-.206.082-1.524.618-1.73-1.154 0 0 2.266.824 2.101-1.73-.123-1.607-1.565-2.225-1.565-2.225-.371.742-.66 1.854-2.266 1.978-1.565.123-3.708.33-4.655.988-.948.7-1.318 1.813-2.101 2.307-.783.536-1.483.618-1.978.536 0 0 .33 2.842 2.143 3.048 1.277.165 1.853-.164 2.389.206.577.371 1.071 1.484 1.071 1.895 0 .412-.082.495-.618.495-.577 0-2.554.123-2.554.123-.33.495-.7 1.113-.206 1.895 0 0 1.36-.824 2.06-.824s2.636.083 2.348 3.255c0 0-1.112-2.019-1.977-.783-.866 1.236-3.131 3.832-3.584 4.655-.783 1.401-1.195 3.008-1.236 2.967-.66-.618-.289-2.225-.289-2.225-2.966-1.195-4.984-2.554-5.438-3.09-.453-.494-.988-1.483-.824-2.266.165-.782.742-1.895.248-2.924-.33-.7-1.319-1.566-1.319-1.566-.37.783-.494 1.566-.288 2.142.247.783.906 1.607.453 2.678-.453 1.03-1.236 2.348.453 4.16 0 0-.824 2.885 2.184 2.679 0 0-1.195 3.542 2.265 3.336-.411 1.236.907 2.967 2.513 1.442 0 0-.206-1.73-.082-2.677 0-.165.206-.165.247 0zm33.74 11.04c-5.932.206-4.573-4.902-4.532-4.902-3.09-1.236-5.314-3.914-5.314-3.914-.494.165-1.772.206-2.637.083-.906 2.636-.164 4.243.99 5.932 1.153 1.689 2.8 3.501 3.048 5.644.576 5.438-5.026 8.445-5.026 8.445-2.019-2.225-4.861-2.513-5.603-2.554-.742-.083-2.39-.083-2.513 1.07-.124.99 1.607.907 2.307.907s.66.412 0 .66c0 0-2.142.823-1.071 2.76.824 1.235 2.76.659 3.708-.165.123-.124.33 0 .33.164-.042.99.246 2.555 1.523 2.678 1.401.165 2.72-1.442 2.39-3.213 0 0 2.966-2.06 3.295-2.307.289-.247.454-.33.618.165.742 2.1 2.184.988 1.319-2.431-.124-.453.206-.577.453-.33 1.812 1.772 1.483-1.153 1.153-2.183-.164-.453.124-.906.371-.659 1.771 1.73 1.73.66 1.73-.124-.04-.782-.37-2.636-.37-2.636 3.872.741 3.83-3.09 3.83-3.09zm14.707 6.55c.906-.33.906-1.277.7-2.224-.37-1.03-1.442-1.813-2.348-2.142-.536-.454 2.183 0 2.719-1.772.412-1.483-2.348-2.842-3.09-3.13-.123-.083-.123-.248 0-.29.247-.082.618-.288.66-.494.123-.37-.083-.823-1.69-1.483-.412-.164-.783-.206-.783-.33 0-.164.165-.246.289-.246 3.502.37 2.678-1.566.577-2.101-.206-.042-.742-.206-.907-.289-.247-.123-.247-.37.041-.37 3.008-.083 2.349-2.472 2.349-2.472-2.39 1.03-6.18 1.153-8.116-.083-1.318-.865-1.524-2.925-2.595-4.325-1.071-1.4-2.884-2.596-5.191-3.008-1.565-.288-3.543-.082-5.48.33-3.913.824-5.437.865-10.174.906 0 2.184-2.02 3.214-2.02 3.214 0 3.996-3.006 4.49-3.006 4.49-.742 3.42-3.296 2.966-3.296 2.966-3.296 3.131-7.869 6.715-11.7 7.25-.412-1.565-.535-2.8-1.977-3.46-.66-.288-1.607-.123-1.854.33-.247.494 0 .947.577 1.318.082.082.082.247-.041.288-1.566.536-2.39 3.172-.824 4.038.741.412 1.36.123 2.06-.289.123-.082.247.083.164.206-.577.824-1.524 2.348-.453 3.131 1.4 1.03 3.049-2.224 3.667-3.666 1.277 2.307 2.76.824 3.007-.824.041-.124.206-.165.247-.041.165.453.412 1.153 1.318 1.112.989-.083 1.195-1.442 1.319-2.225 0-.165.206-.165.247-.04.247.7.7 1.523 1.812 1.317 1.401-.288 1.36-2.1 1.483-3.172.042-.123.206-.165.248-.041.741 1.4 3.254 1.607 4.243.288 1.03-1.4-.618-3.501-2.843-2.595-.535.206.948-1.813 1.4-1.73 4.903.659 8.117-2.472 9.723-5.891 1.854 1.277 4.738 1.483 4.45.577-.495-1.566-1.69-2.143-3.132-2.349 0 0 3.173-.988 4.079 1.483 1.236 3.46 4.367 5.397 9.846 6.468 4.655.906 8.321-.453 8.321-.453 1.236 2.637 3.296 7.168 2.307 8.816-.988.453-3.13 1.112-3.83 2.554-.248.495-.125 1.648.576 1.73.865.083 1.565-1.73 2.348-1.689-.247.7-.412 1.937.288 2.39.7.247 1.895-.124 2.266-.948.206-.453.289-.947.289-1.318 0-.124.164-.206.247-.082.288.33.741.617 1.483.37z"/></g><g><path fill="#ed3024" d="M1.545 18.332c-.37-.494-.453-1.318-.164-1.441.411.247.576.576 1.853.988.412.289.412 1.113-.206 1.236-.412.083-1.07-.288-1.483-.783"/></g><g><path fill="#ed3024" d="M61.403 40.043c.906.33 1.978 1.112 2.348 2.142.33.906.33 1.854-.576 2.183-.742.247-1.195-.04-1.483-.37-.083-.124-.248-.042-.248.082 0 .37-.082.865-.288 1.318-.37.824-1.565 1.195-2.266.948-.7-.453-.535-1.69-.288-2.39-.783-.04-1.483 1.772-2.348 1.69-.7-.083-.824-1.236-.577-1.73.7-1.443 2.842-2.102 3.831-2.555.989-1.648-1.071-6.18-2.307-8.816 0 0-3.666 1.36-8.321.453-5.48-1.07-8.61-3.007-9.846-6.468-.907-2.471-4.079-1.483-4.079-1.483 1.442.206 2.637.783 3.131 2.349.289.906-2.595.7-4.449-.577-1.607 3.42-4.82 6.55-9.722 5.89-.453-.082-1.936 1.937-1.401 1.731 2.225-.906 3.872 1.195 2.843 2.595-.99 1.319-3.502 1.113-4.244-.288-.04-.124-.206-.082-.247.041-.123 1.071-.082 2.884-1.483 3.172-1.112.206-1.565-.618-1.812-1.318-.042-.124-.248-.124-.248.041-.123.783-.33 2.142-1.318 2.225-.906.041-1.153-.66-1.318-1.112-.041-.124-.206-.083-.247.04-.248 1.649-1.73 3.132-3.008.825-.618 1.442-2.265 4.696-3.666 3.666-1.071-.783-.124-2.307.453-3.13.082-.124-.041-.29-.165-.207-.7.412-1.318.7-2.06.289-1.565-.866-.741-3.502.824-4.038.124-.04.124-.206.042-.288-.577-.37-.824-.824-.577-1.318.247-.453 1.194-.618 1.854-.33 1.441.66 1.565 1.895 1.977 3.46 3.831-.535 8.404-4.119 11.7-7.25 0 0 2.554.453 3.295-2.966 0 0 3.008-.494 3.008-4.49 0 0 2.018-1.03 2.018-3.214 4.738-.04 6.262-.082 10.176-.906 1.936-.412 3.913-.618 5.479-.33 2.307.412 4.12 1.607 5.19 3.008 1.072 1.4 1.278 3.46 2.596 4.325 1.936 1.236 5.726 1.113 8.115.083 0 0 .66 2.39-2.348 2.472-.288 0-.288.247-.04.37.164.083.7.247.905.289 2.101.535 2.925 2.471-.576 2.1-.124 0-.289.083-.289.248 0 .123.371.165.783.33 1.607.659 1.813 1.112 1.69 1.482-.042.206-.413.412-.66.495-.124.041-.124.206 0 .288.741.289 3.502 1.648 3.09 3.131-.618 1.813-3.378 1.36-2.843 1.813"/></g><g><path fill="#ed3024" d="M62.598 21.463c2.719-1.648.824-4.984-2.184-5.89-4.037-1.195-15.572.246-18.703.082-3.254-.165-5.643-.577-7.291-2.349-1.69-1.812-1.813-4.449-.66-6.426 1.154-1.69 3.255-2.183 5.15-2.225 5.026-.082 7.786-2.307 10.67-3.213 5.273-1.648 6.88 1.03 6.88 1.03S52.587.742 46.408 4.738c.824.37 2.39 1.07 4.779 1.277 5.643.453 7.168-2.678 10.175-1.566 0 0-1.195 0-1.854.783 4.202-.783 5.19 1.73 5.19 1.73-8.98-2.1-7.909 1.854-12.605 2.019-2.513.123-8.116-2.472-8.61-2.472.412 1.607-.289 4.45-2.76 3.543.865-.989 1.112-3.13-2.266-3.13s-3.831 3.212-2.843 4.654c1.483 2.142 3.049 2.472 6.963 2.43 0 0 2.512-1.647 3.419-1.111-.124.205-.453.906-.453.906 1.277-.618 3.996-1.69 4.82-1.195 0 0-.206.37-.495.948 2.39-1.113 4.45-1.772 5.603-1.195l-.577 1.112c1.648-.741 3.296-1.977 5.232-1.4l-.66 1.194c3.132-.412 4.944-.123 5.439.412-.165.165-.948.618-1.318.948 1.277.494 5.314 6.55-1.113 8.404-1.854.535-6.22.659-9.64-.083-.247-.494-.824-1.194-.824-1.194 6.097.988 8.94.7 10.588-.289"/></g><g><path fill="#ed3024" d="M27.622 14.213c-.535-.206-.618.165-.576.412 1.895 1.194 2.142 1.977 2.677 2.595.577.66-.453 1.895-.453 1.895-.783-1.73-1.73-2.636-2.266-3.048-.412-.33-.906-.165-.659.164.66.866 1.525 2.225 2.184 4.079.618 1.648-.865 2.39-.865 2.39-.289-2.679-2.225-4.409-2.802-4.944-.535-.536-.618.082-.37.494.247.412 1.483 1.977 1.853 5.19.371 3.214-1.236 3.255-1.236 3.255.371-3.543-1.73-5.685-2.142-6.18-.412-.452-.535.083-.247.66.453.906 1.36 3.337 1.112 6.468-.247 3.13-1.977 2.925-2.471 1.977-.495-.989-.948-2.966-.783-4.202.165-1.277-.083-1.277-.289-.865-.37.7-.741 2.843-.04 4.82.864 2.39-.701.824-1.195.124-.7-.99-1.277-2.39-1.648-3.379-.041-.123-.206-.082-.206.042.041 2.636.824 3.501 1.895 5.602.082.165-.041.33-.206.289-1.4-.206-3.831-2.554-4.243-5.232 0-.165-.206-.165-.248 0-.123.947.083 2.678.083 2.678-1.607 1.524-2.925-.206-2.513-1.442-3.46.206-2.266-3.337-2.266-3.337-3.007.247-2.183-2.678-2.183-2.678-1.69-1.813-.907-3.09-.453-4.16.494-1.03-.165-1.896-.454-2.678-.206-.618-.082-1.36.289-2.143 0 0 .988.865 1.318 1.566.453 1.03-.082 2.142-.247 2.925-.124.782.37 1.73.824 2.265.453.536 2.472 1.895 5.438 3.09 0 0-.371 1.607.288 2.225.33-1.071.453-1.525 1.236-2.966.453-.824 2.719-3.42 3.584-4.656.865-1.194 1.977.783 1.977.783.289-3.213-1.647-3.254-2.348-3.254-.741 0-2.06.824-2.06.824-.494-.783-.123-1.401.206-1.895 0 0 2.019-.124 2.555-.124.535 0 .617-.082.617-.494 0-.371-.494-1.483-1.07-1.895-.536-.371-1.113-.083-2.39-.206-1.854-.206-2.142-3.049-2.142-3.049.494.041 1.195-.041 1.977-.535.783-.536 1.154-1.648 2.101-2.307.948-.7 3.09-.865 4.655-.99 1.566-.123 1.895-1.235 2.266-1.976 0 0 1.442.617 1.566 2.224.164 2.554-2.101 1.73-2.101 1.73.206 1.73 1.524 1.236 1.73 1.154 1.565 2.307-1.36 4.284-3.213 4.078-.824-.082-.412.536.123.66 3.255.659 4.285-1.772 4.285-1.772 1.153.494.617 1.565.617 1.565.66.248.618.907.618.907-.453-.124-1.4-.206-1.73-.124-.412.083-.535.494-.041.494 2.307-.04 3.254 1.813 2.719 2.637-.66-.7-2.06-1.483-2.637-1.73zm-4.737-7.21c.247-.247-.824-.33-.824-.33s-1.236.042-1.73.042c-.495 0-.948-.082-1.69-.535l.042 1.689c.247.412 2.266 1.194 4.202-.866zM1.092 14.46c.247-.536.742-.412.865-.37.206.123 1.319.864 1.69 1.03.37.164.74.617.494 1.153-.289.576-.948.412-1.319.288-.37-.124-.782-.453-1.112-.7-.33-.248-.824-.948-.618-1.401z"/></g><g><path fill="#ed3024" d="M15.84 12.936c-1.194.04-1.524-.371-1.771-.783 0 0 .618.082.947.082.33 0 1.813-.04 2.555-.04.7 0 1.112.37 1.194.658.041 0-1.73.042-2.925.083"/></g><g><path fill="#ed3024" d="M2.37 11.411c.288-.164 1.03-.123 1.606.7.33.454.33.907.041 1.196-.247.247-.783.576-1.648-.33-.453-.494-.453-1.277 0-1.566"/></g><g><path fill="#ed3024" d="M48.509 37.818s.041 3.831-3.831 3.09c0 0 .33 1.854.37 2.636 0 .783.041 1.854-1.73.124-.247-.247-.535.206-.37.66.329 1.029.658 3.954-1.154 2.182-.247-.247-.577-.123-.453.33.865 3.42-.577 4.532-1.319 2.43-.164-.494-.33-.411-.618-.164-.33.247-3.295 2.307-3.295 2.307.33 1.771-.989 3.378-2.39 3.213-1.277-.123-1.565-1.689-1.524-2.678 0-.164-.206-.288-.33-.164-.947.824-2.883 1.4-3.707.164-1.071-1.936 1.071-2.76 1.071-2.76.66-.247.7-.659 0-.659s-2.43.082-2.307-.906c.124-1.154 1.771-1.154 2.513-1.071.742.082 3.584.33 5.603 2.554 0 0 5.602-3.007 5.026-8.445-.248-2.143-1.895-3.955-3.049-5.644-1.153-1.69-1.895-3.296-.989-5.932.865.123 2.143.082 2.637-.083 0 0 2.224 2.678 5.314 3.914-.041 0-1.4 5.108 4.532 4.902"/></g><g><path fill="#ed3024" d="M3.482 4.326c.37-2.184 3.336-2.843 5.561-2.019 1.236.453 2.884.041 3.749-.288.865-.33 1.4-.371 1.977-.165.907.33 2.184.041 2.802-.124 0 0-1.03.866-1.73.824-.948-.04-1.649.948-1.978 1.525-.288.576-.66.865-1.978.906-1.77.082-1.853 1.318-2.018 1.854-.206.824-1.154.824-2.183.7-1.854-.247-2.76-.66-3.461-1.236-.741-.535-.824-1.195-.741-1.977"/></g><g><path fill="#231f20" d="M22.102 6.674s-1.277.041-1.73.041c-.494 0-.948-.082-1.69-.535l.042 1.689c.247.412 2.225 1.153 4.202-.865.206-.248-.824-.33-.824-.33"/></g><g><path fill="#fff" d="M2.905 31.35c-.041.165-.083.247-.165.247-.124 0-.124-.123-.165-.288-.041-.288 0-.783.041-1.195.042-.535.412-5.19.742-10.093.37-.04.577-.082.783-.37 0 0 .412.164.824 0-.083.04-1.772 10.093-2.06 11.7"/></g><g><path fill="#fff" d="M4.965 19.403l-.618-.453c.123-.535-.042-1.07-.536-1.4.453-.042.7-.289.824-.66.124.083.494.165.7.165z"/></g><g><path fill="#fff" d="M5.418 16.685l-.453-.454c.164-.947-.412-1.689-1.195-2.1.659.082.989-.33.989-.33s.453.082.782.041a1.773 1.773 0 0 0 0 .66c.042.246.124.452.165.658z"/></g><g><path fill="#fff" d="M6.365 11.37a1.795 1.795 0 0 0-1.07-.206s.535.742.7 1.236c0 0-.33.742-.413 1.195-.164-.247-.33-.289-.535-.536.247-.906-.494-2.018-1.112-2.43l.206-2.884c.741.494 2.018.783 2.76.906z"/></g><g><path fill="#231f20" d="M86.656 7.086l1.978.453v8.98c0 3.296-.948 4.285-4.079 4.285-3.213 0-4.16-.947-4.16-4.202V7.498l1.689-.453h.04V6.22h-6.55v.824l2.02.453v9.351c0 3.378 2.389 5.397 6.426 5.397 3.831 0 5.767-1.648 5.89-4.985l.454-9.763 1.771-.453V6.22h-5.479z"/></g><g><path fill="#231f20" d="M104.7 7.086l2.39.453.453 9.805-8.075-11.082-.04-.041h-5.192v.865l2.143.453v13.265l-2.143.453v.824h6.221v-.824l-2.43-.453-.577-12.853 10.463 14.336v.041h.783V7.54l1.978-.453V6.22H104.7z"/></g><g><path fill="#231f20" d="M112.98 7.086l2.225.453v13.265l-2.224.453v.824h7.25v-.824l-2.266-.453V7.54l2.266-.453V6.22h-7.25z"/></g><g><path fill="#231f20" d="M132.631 7.086l2.101.453-4.202 11.494-4.284-11.494 1.895-.453V6.22h-6.715v.824l1.854.494 5.89 14.748v.041h1.113L136.42 7.54l1.73-.494V6.22h-5.52z"/></g><g><path fill="#231f20" d="M150.387 20.763l-6.097.33V14.5l2.8.165.907 2.307.041.041h.618v-6.22h-.618l-.947 2.512-2.801.165V7.168l5.231.371 2.266 3.296.041.04.536-.123-.536-4.49v-.041h-12.44v.865l2.141.453v13.265l-2.142.453v.824H152.776l.7-5.19v-.042l-.659-.164z"/></g><g><path fill="#231f20" d="M169.831 20.804l1.524.453v.824h-3.419c-.7 0-.989-.165-1.153-.618a20.817 20.817 0 0 1-.618-1.606c-1.607-4.285-1.813-4.82-3.955-4.82h-1.318v5.726l2.224.453v.824h-7.127v-.824l2.142-.453V7.498l-2.142-.453V6.22h7.333c3.584 0 5.891 1.73 5.891 4.367 0 1.524-.824 3.46-4.696 4.037 1.483.206 2.39.659 3.42 2.636zm-3.502-10.216c0-2.76-.7-3.131-3.295-3.131h-2.101v6.385h1.648c3.09 0 3.748-.577 3.748-3.254z"/></g><g><path fill="#231f20" d="M179.553 12.318c-2.677-.824-3.46-1.277-3.46-2.802 0-1.812 1.4-2.183 2.554-2.183 1.813 0 2.678.7 4.49 3.831l.042.041.618-.123-.495-4.779v-.041h-.659l-.535 1.071c-.454-.412-1.566-1.277-3.379-1.277-2.76 0-4.613 1.689-4.613 4.202 0 2.884 2.348 4.078 4.902 4.902 2.925.989 3.79 1.525 3.79 3.46 0 1.607-.989 2.431-2.966 2.431-2.39 0-3.337-1.07-5.438-4.82l-.041-.04-.7.205.576 5.768h.7l.618-1.483c1.071 1.112 2.513 1.689 4.244 1.689 3.295 0 5.273-1.772 5.273-4.738-.083-2.513-1.854-4.202-5.52-5.314"/></g><g><path fill="#231f20" d="M187.957 7.086l2.225.453v13.265l-2.225.453v.824h7.25v-.824l-2.224-.453V7.54l2.225-.453V6.22h-7.25z"/></g><g><path fill="#231f20" d="M211.233 6.22h-13.471l-.33 5.48.66.165 2.224-4.367 2.801-.33v13.636l-2.389.453h-.041v.824h7.662v-.824l-2.471-.453V7.168l2.842.33 2.184 4.325.04.042.619-.165-.33-5.397z"/></g><g><path fill="#231f20" d="M223.015 7.086l2.019.412-3.625 6.715-3.996-6.592 1.936-.576V6.22h-6.839v.824l1.73.576 5.109 7.828v5.355l-2.225.453v.824h7.21v-.824l-2.225-.453V15.16l4.655-7.621 1.854-.494V6.22h-5.603z"/></g><g><path fill="#231f20" d="M236.321 15.407c-1.03 1.978-2.76 3.214-4.49 3.255-1.442 0-2.925-1.154-2.925-3.296 0-.824.247-1.771.7-2.595.948-1.772 2.678-2.925 4.367-2.925 1.73 0 2.925 1.318 2.925 3.213 0 .783-.165 1.566-.577 2.348zm-4.449 2.266c.948 0 1.36-.453 2.348-3.419.577-1.813.7-2.843.412-3.254-.164-.206-.37-.289-.741-.289-.865 0-1.4.453-2.307 3.337-.618 1.854-.742 2.884-.412 3.337.165.206.37.288.7.288z"/></g><g><path fill="#231f20" d="M247.28 7.003c-.907-.7-1.525-.782-2.019-.782-.989 0-1.854.288-2.637.824-1.689 1.194-2.348 3.543-2.43 3.913l-.33 1.277-1.4.536h-.042l-.123.535h1.277l-1.854 7.992c-.247.866-.741 1.401-1.442 1.607-.206.041-1.318.247-1.854-.906l-.04-.041-.083.082-.247 1.112v.042c.288.37.824.865 1.73.988.165.041.37.041.535.041.248 0 .454-.04.7-.082.042 0 .66-.124.948-.247.907-.412 1.525-1.236 1.854-2.513l2.06-7.992h2.925l.247-1.195h-2.842c.082-.37.535-2.1 1.194-3.42.948-1.565 1.978-1.276 2.43-1.07l.166 1.442.617.288.66-2.307v-.124z"/></g><g><path fill="#231f20" d="M91.723 29.373h-14.13l-.33 5.809.742.164 2.307-4.531 2.843-.371v14.089l-2.472.453H80.6v.989h8.116v-.989l-2.554-.453V30.444l2.801.37 2.348 4.532.742-.164-.33-5.686z"/></g><g><path fill="#231f20" d="M112.28 44.533l1.978.494v.99h-7.168v-.99l2.06-.453-1.854-4.696h-5.644l-1.937 4.696 2.02.453v.99H95.76v-.99l2.142-.494 6.756-15.407h1.195l.04.082zm-7.786-11.7l-2.307 5.685h4.573z"/></g><g><path fill="#231f20" d="M126.41 35.717c-2.76-.824-3.542-1.318-3.542-2.884 0-1.812 1.4-2.224 2.595-2.224 1.854 0 2.719.741 4.655 3.955l.041.082.742-.165-.536-5.026v-.123h-.782l-.536 1.07c-.453-.411-1.648-1.276-3.502-1.276-2.925 0-4.86 1.771-4.86 4.408 0 3.048 2.471 4.284 5.108 5.15 3.007.988 3.913 1.565 3.913 3.542 0 1.648-1.03 2.472-3.048 2.472-2.43 0-3.46-1.112-5.603-4.985l-.041-.082-.783.247.618 6.097h.783l.618-1.483c1.112 1.112 2.595 1.689 4.366 1.689 3.46 0 5.562-1.854 5.562-4.985-.082-2.554-1.936-4.325-5.768-5.479"/></g><g><path fill="#231f20" d="M149.933 41.073l-4.655-11.618v-.082h-5.932v.989l2.266.453v13.718l-2.266.453v.989h6.097v-.948l-2.019-.494-.618-13.183 5.85 14.09.042.082h.988l5.397-14.172v13.183l-2.019.494v.948h7.25v-.989l-2.224-.453V30.815l2.225-.453v-.99h-6.056z"/></g><g><path fill="#231f20" d="M182.231 44.533l1.977.494v.99h-7.168v-.99l2.06-.453-1.854-4.696h-5.643l-1.937 4.696 2.019.453v.99h-5.974v-.99l2.143-.494 6.756-15.407h1.194l.042.082zm-7.786-11.7l-2.307 5.685h4.573z"/></g><g><path fill="#231f20" d="M200.934 30.362l2.472.453.453 10.01-8.28-11.41-.042-.042h-5.479v.989l2.225.453v13.718l-2.225.453v.989h6.55v-.989l-2.512-.453-.577-13.142 10.752 14.79.041.041h.907V30.815l2.06-.495v-.947h-6.345z"/></g><g><path fill="#231f20" d="M213.993 30.362l2.307.453v13.718l-2.307.453v.989h7.663v-.989l-2.348-.453V30.815l2.348-.453v-.99h-7.663z"/></g><g><path fill="#231f20" d="M245.096 45.027v.99h-7.168v-.99l2.06-.453-1.854-4.696h-5.644l-1.936 4.696 2.019.453v.99h-5.974v-.99l2.142-.494 6.798-15.407h1.194l.042.082 6.385 15.325zm-9.722-12.194l-2.307 5.685h4.573z"/></g></g></g></svg>