<svg xmlns="http://www.w3.org/2000/svg" width="175" height="104" viewBox="0 0 175 104"><g><g><g><path fill="#0091d4" d="M119.236 49.014V38.32H54.182v10.694z"/></g><g><path fill="#0091d4" d="M53.826 35.83a9.452 9.452 0 1 0 0-18.904 9.452 9.452 0 0 0 0 18.904z"/></g><g><path fill="#0091d4" d="M75.748 35.83a9.452 9.452 0 1 0 0-18.904 9.452 9.452 0 0 0 0 18.904z"/></g><g><path fill="#0091d4" d="M97.67 35.83c5.22 0 9.453-4.232 9.453-9.452s-4.232-9.452-9.453-9.452a9.452 9.452 0 0 0 0 18.904z"/></g><g><path fill="#0091d4" d="M119.593 35.83a9.452 9.452 0 1 0 0-18.904 9.452 9.452 0 0 0 0 18.904z"/></g><g><path fill="#0091d4" d="M0 103.374V59.53H16.22v15.328l15.15-15.328h17.466l-20.14 19.962 24.418 23.883H31.547L16.219 88.581v14.793H0z"/></g><g><path fill="#0091d4" d="M54.004 103.374V59.53h16.219v32.617h27.09v11.228h-43.31z"/></g><g><path fill="#0091d4" d="M102.304 103.374V59.53h27.626l8.377 23.794 8.555-23.794h27.626v43.845h-16.22V71.025l-11.584 32.35H129.93l-11.585-32.44v32.44h-16.04z"/></g><g><path fill="#0091d4" d="M78.421 11.229V5.525h5.526V0h5.703v5.525h5.525v5.704H89.65v5.525h-5.703v-5.525z"/></g></g></g></svg>