<svg xmlns="http://www.w3.org/2000/svg" width="188" height="38" viewBox="0 0 188 38"><g><g><g><path fill="#1a1818" d="M7.019 14.201h3.608c0-2.178-1.582-4.407-5.24-4.407C1.779 9.794 0 12.42 0 15.49c0 3.268 2.125 5.596 5.634 5.596 3.362 0 4.993-2.13 4.993-4.407H7.068c-.148.742-.494 1.534-1.483 1.534-1.038 0-1.829-.792-1.829-2.822 0-1.98.939-2.625 1.83-2.625.938 0 1.334.793 1.433 1.436z"/></g><g><path fill="#1a1818" d="M20.166 20.837v-7.576h3.065v.643c.544-.594 1.335-1.039 2.422-1.039 1.038 0 2.125.495 2.471 1.188.445-.644 1.434-1.139 2.521-1.139 1.286 0 2.076.594 2.472 1.19.395-.596 1.384-1.239 2.422-1.239 1.334 0 2.026.544 2.57 1.238a2.884 2.884 0 0 1 2.373-1.238c2.323 0 2.916 1.535 2.916 3.218v4.754h-3.312v-4.209c0-.743-.247-1.04-.791-1.04-.543 0-.89.495-.89 1.09v4.16h-3.361v-4.21c0-.743-.197-1.04-.741-1.04s-.89.495-.89 1.09v4.16h-3.311v-4.21c0-.743-.248-1.04-.791-1.04-.495 0-.84.495-.84 1.09v4.16h-3.312v-4.21c0-.743-.247-1.04-.791-1.04s-.89.495-.89 1.09v4.16h-3.312z"/></g><g><path fill="#1a1818" d="M61.39 15.44v5.397h-3.312v-4.209c0-.743-.297-1.04-.84-1.04-.544 0-.89.495-.89 1.09v4.16h-3.312V13.26h3.065v.643c.544-.594 1.582-1.039 2.422-1.039 1.087-.05 2.867.594 2.867 2.575z"/></g><g><path fill="#1a1818" d="M69.002 20.886c-.149-.544-.396-1.238-.643-2.079-.197-.644-.346-1.189-.346-1.486 0 .297-.099.842-.296 1.486-.248.743-.445 1.535-.643 2.03h-3.46l-2.323-7.626h3.559c.148.495.296 1.19.544 1.882.148.594.247 1.09.247 1.386 0-.297.148-.792.296-1.386.247-.743.445-1.387.593-1.882h3.015c.149.495.347 1.14.544 1.882.148.594.297 1.09.297 1.386 0-.297.148-.792.296-1.386.198-.693.396-1.387.544-1.882h3.509l-2.273 7.626z"/></g><g><path fill="#1a1818" d="M92.629 10.042h3.311v10.795H92.63z"/></g><g><path fill="#1a1818" d="M102.07 18.46v2.18c-.149.098-.841.395-1.928.395-2.175 0-2.768-1.089-2.768-3.12v-2.723h-.989v-2.129h.989v-3.02h3.311v3.02h1.335v2.13h-1.335v2.128c0 .644.198.842.445 1.09.198.247.742.148.939.05z"/></g><g><path fill="#1a1818" d="M111.164 15.142v5.695h-3.311v-4.209c0-.743-.347-1.04-.841-1.04-.544 0-.889.495-.889 1.09v4.16h-3.411l-.049-10.746h3.212v3.763c.445-.594 1.582-1.09 2.422-1.09 1.631 0 2.867 1.09 2.867 2.377z"/></g><g><path fill="#1a1818" d="M138.943 16.281l-1.434 1.387v3.17h-.691V9.892h.691v7.032l4.153-3.961h.79l-2.965 2.872 3.311 5.001h-.74l-3.115-4.556z"/></g><g><path fill="#1a1818" d="M133.407 13.508c-1.285 0-2.422 1.04-2.422 2.328v5.001h-.692v-7.824h.692v1.337c.296-.495 1.087-1.485 2.521-1.485 2.076 0 2.669 1.535 2.669 2.773v5.2h-.692v-4.854c0-2.03-1.038-2.476-2.076-2.476z"/></g><g><path fill="#1a1818" d="M115.514 15.588h4.004c1.285 0 2.372.941 2.372 2.278 0 1.337-.741 2.278-2.57 2.278h-3.806zm0-.693v-4.11h3.608c.99-.05 2.274.347 2.274 2.03.049 1.733-1.532 2.08-2.52 2.08zm3.509-4.803h-4.201v10.745h4.597c1.581 0 3.213-.792 3.262-2.97 0-1.883-1.433-2.477-2.076-2.725.742-.346 1.532-1.089 1.532-2.426.05-1.535-1.186-2.624-3.114-2.624z"/></g><g><path fill="#1a1818" d="M128.365 17.915c0 1.635-1.334 2.526-2.669 2.526-.889 0-1.928-.297-1.928-1.634s1.137-1.634 1.879-1.783l2.718-.446zm1.632 2.427c-.594.148-.89-.099-.89-.644v-4.457c0-.94-.099-2.476-2.966-2.476-2.027 0-2.719 1.387-2.719 2.328h.544c0-.149.346-1.783 2.274-1.783 1.73 0 2.175.793 2.175 1.387v.693c0 .792-.89.792-1.236.891-.346.05-1.681.248-2.224.347-.544.1-1.878.495-1.878 2.13 0 1.683 1.186 2.277 2.421 2.277 1.187 0 2.175-.446 2.917-1.485 0 1.237.642 1.386.89 1.386.148 0 .444 0 .692-.149v-.445z"/></g><g><path fill="#1a1818" d="M14.383 16.975c0-.743.099-1.932.989-1.932s1.038 1.19 1.038 1.932c0 .792-.148 1.98-1.038 1.98s-.989-1.188-.989-1.98zm-3.41.1c0 2.227 1.582 4.01 4.399 4.01 2.224 0 4.498-1.238 4.498-4.16 0-2.228-1.483-4.209-4.646-4.209-3.065 0-4.251 2.228-4.251 4.358z"/></g><g><path fill="#1a1818" d="M47.154 16.975c0-.743.149-1.932 1.038-1.932.89 0 .989 1.19.989 1.932 0 .792-.099 1.98-.989 1.98-.889 0-1.038-1.188-1.038-1.98zm-3.361.1c0 2.227 1.582 4.01 4.399 4.01 2.225 0 4.498-1.238 4.498-4.16 0-2.228-1.482-4.209-4.646-4.209-3.064 0-4.251 2.228-4.251 4.358z"/></g><g><path fill="#1a1818" d="M77.8 15.786c.05-.545.346-.94.939-.94.494 0 .84.445.939.94zm5.289 1.981c.049-.297.049-.495.049-.842 0-2.228-1.433-4.209-4.597-4.209-3.114 0-4.3 2.228-4.3 4.358 0 2.228 1.631 4.011 4.4 4.011 1.828 0 3.608-.842 4.3-2.625h-3.164c-.148.297-.593.446-.988.446-.594 0-1.038-.495-1.038-1.139z"/></g><g><path fill="#1a1818" d="M88.526 17.57c0 .246.1.841-.346 1.187-.494.347-1.038.297-1.236 0-.197-.297-.148-.545.247-.743.346-.148.742-.247 1.335-.445zm.445 3.267h3.262l-.198-.594c-.098-.496-.098-1.189-.098-1.783v-2.476c0-2.08-.396-3.367-4.202-3.367-2.323 0-3.905 1.09-3.905 2.971h3.065c0-.495.346-.99.939-.99.445 0 .692.297.692.643 0 .397-.494.595-1.137.694-.692.1-4.053.198-4.053 2.773 0 2.278 2.422 2.475 2.966 2.475.593 0 1.927-.346 2.422-.89l.247.544z"/></g><g><path fill="#ffbe00" d="M172.456 31.236l-14.68-14.658 14.68-14.706 10.973 10.993-4.548 4.605-6.425 13.766z"/><path fill="none" stroke="#ffbe00" stroke-miterlimit="20" stroke-width=".09" d="M172.456 31.236v0l-14.68-14.658v0l14.68-14.706v0l10.973 10.993v0l-4.548 4.605v0l-6.425 13.766v0z"/></g><g><path fill="none" stroke="#ffbe00" stroke-miterlimit="20" stroke-width=".14" d="M183.429 12.964v0l-4.548 4.555v0l-6.178 13.32v0"/></g><g><path fill="#1a1818" d="M172.456 31.236l6.425-13.766 4.548-4.605 3.657 3.713z"/></g><g><path fill="#1a1818" d="M4.646 36.485c-1.582 0-2.57-1.139-2.57-3.467 0-2.476 1.186-3.417 2.57-3.417s2.57.941 2.57 3.417c0 2.23-.939 3.467-2.521 3.467zm3.559-3.417c0-2.922-1.483-4.11-3.559-4.11-2.027 0-3.559 1.188-3.559 4.11 0 2.575 1.186 4.06 3.559 4.06s3.559-1.535 3.559-4.06z"/></g><g><path fill="#1a1818" d="M12.406 26.432c-.198-.099-.346-.148-.544-.247a3.8 3.8 0 0 0-.791-.099c-.593 0-1.037.198-1.334.446-.445.396-.593 1.09-.593 2.03v.545h-.791v.643h.791v7.18h.939v-7.18h1.582v-.643h-1.582v-.545c0-.842.148-1.337.395-1.585.198-.148.445-.248.742-.248.247 0 .494.05.642.1.15.05.297.148.396.247z"/></g><g><path fill="#1a1818" d="M21.847 32.82h-3.905l.989-2.97c.296-.942.642-1.882.939-2.922h.049c.346 1.09.643 1.98.939 2.971zm.247.694l1.137 3.416h1.137l-3.855-10.695h-1.236L15.421 36.93h1.088l1.186-3.416z"/></g><g><path fill="#1a1818" d="M25.159 29.156v5.497c0 .891.148 1.485.494 1.881.346.396.99.594 1.681.594.543 0 1.087-.148 1.581-.396.445-.247.84-.544 1.286-.89h.05l-.05 1.138h.988v-7.824h-.988v5.893c-.396.445-.89.792-1.286 1.04a3.227 3.227 0 0 1-1.285.297c-.593 0-.988-.198-1.186-.446-.297-.347-.346-.89-.346-1.535v-5.249h-.939z"/></g><g><path fill="#1a1818" d="M38.109 30.295c-.198-.396-.494-.694-.89-.94-.494-.248-1.137-.397-1.829-.397-.939 0-1.581.15-2.125.495-.494.297-.79.792-.79 1.436 0 .495.147.892.493 1.238.396.396.89.594 2.076.941 1.137.247 1.631.446 1.978.792.247.297.395.644.395.99 0 .545-.198.941-.494 1.19-.396.346-.989.494-1.582.494-1.038 0-1.829-.396-2.175-.99l-.89.148c.297.446.692.842 1.187 1.04.543.248 1.186.347 1.927.347.99 0 1.73-.248 2.225-.693.544-.397.79-.94.79-1.634 0-.595-.197-1.04-.494-1.338-.395-.445-.939-.693-2.175-.99-1.235-.346-1.58-.495-1.927-.792-.247-.248-.396-.545-.396-.842 0-.445.198-.743.495-.94.346-.249.94-.347 1.482-.347 1.04 0 1.632.445 1.88.94l.84-.148z"/></g><g><path fill="#1a1818" d="M39.592 29.156h-.939v.644h.939v4.902c0 1.832.791 2.426 1.878 2.426.544 0 1.038-.198 1.335-.346l-.198-.644c-.198.1-.544.297-.939.297-.643 0-1.088-.644-1.088-2.08V29.8h1.78v-.693h-1.78v-1.684h-.939l-.049 1.733z"/></g><g><path fill="#1a1818" d="M44.189 29.998v-.842h-.939v7.774h.939v-5.99c.296-.348.593-.695.889-.893.297-.247.593-.346.841-.346.198 0 .346.05.543.1.099.048.198.147.346.246l.099-.792c-.099-.099-.247-.148-.395-.198-.149-.099-.346-.099-.544-.099-.395 0-.692.1-.988.248a3.703 3.703 0 0 0-.791.742z"/></g><g><path fill="#1a1818" d="M52.394 35.494c-.692.842-1.681 1.04-2.225 1.04-1.433 0-1.828-.693-1.828-1.584 0-1.387 1.235-2.13 4.053-2.526zm1.235 1.436v-.049c-.247-.248-.296-.495-.296-1.189v-3.91c0-2.13-.89-2.824-2.768-2.824-1.928 0-2.669 1.04-2.867 2.08l.989.1c.099-.843.692-1.635 1.878-1.635 1.384 0 1.829.742 1.829 2.08v.296c-3.658.446-5.042 1.387-5.042 3.071 0 1.287.741 2.178 2.669 2.178.84 0 1.829-.346 2.373-.94h.049c0 .297.05.544.247.742z"/></g><g><path fill="#1a1818" d="M55.854 36.93V26.284h-.94V36.93z"/></g><g><path fill="#1a1818" d="M58.177 36.93h-.989v-7.774h.989zm-.989-9.408v-1.287h.989v1.287z"/></g><g><path fill="#1a1818" d="M64.257 35.494c-.643.842-1.632 1.04-2.175 1.04-1.434 0-1.878-.693-1.878-1.584 0-1.387 1.284-2.13 4.053-2.526v3.07zm1.285 1.436v-.049c-.297-.248-.346-.495-.346-1.189v-3.91c0-2.13-.84-2.824-2.719-2.824-1.928 0-2.669 1.04-2.867 2.08l.94.1c.148-.843.692-1.635 1.927-1.635 1.335 0 1.78.742 1.78 2.08v.296c-3.609.446-4.993 1.387-4.993 3.071 0 1.287.742 2.178 2.67 2.178.79 0 1.78-.346 2.372-.94 0 .297.05.544.247.742z"/></g></g></g></svg>